<svg width="157" height="244" viewBox="0 0 157 244" fill="none" xmlns="http://www.w3.org/2000/svg">
<g id="big-box">
<g id="Group" style="mix-blend-mode:multiply" opacity="0.3">
<path id="Vector" style="mix-blend-mode:multiply" opacity="0.09" d="M33.9569 3.43435C23.8299 -2.4084 15.613 2.2658 15.613 13.8855V158.16C15.613 169.78 23.8464 183.934 33.9569 189.793L114.644 238.28C124.771 244.123 153.505 217.114 153.505 205.495V91.5364C153.505 79.9168 141.567 66.355 131.44 60.5123L33.9569 3.43435Z" fill="url(#paint0_linear_145_206)"/>
<path id="Vector_2" style="mix-blend-mode:multiply" opacity="0.18" d="M32.5902 4.19144C22.562 -1.60193 14.4768 3.03935 14.4768 14.5438V157.584C14.4768 169.105 22.6114 183.111 32.5902 188.855L114.314 237.803C124.343 243.58 150.936 218.859 150.936 207.371V91.6187C150.936 80.0978 139.41 66.6348 129.431 60.8579L32.5902 4.19144Z" fill="url(#paint1_linear_145_206)"/>
<path id="Vector_3" style="mix-blend-mode:multiply" opacity="0.27" d="M31.207 4.94852C21.327 -0.779026 13.2253 3.79643 13.2253 15.1857V157.025C13.2418 168.397 21.327 182.272 31.207 187.999L114.018 237.375C123.898 243.102 148.401 220.653 148.401 209.28V91.701C148.401 80.3282 137.368 66.931 127.438 61.2035L31.207 4.94852Z" fill="url(#paint2_linear_145_206)"/>
<path id="Vector_4" style="mix-blend-mode:multiply" opacity="0.36" d="M29.8402 5.70562C19.9602 0.0274501 12.0562 4.56998 12.0562 15.8276V156.449C12.0562 167.706 20.026 181.432 29.8402 187.111L113.82 236.947C123.7 242.609 145.98 222.447 145.98 211.189V91.7833C145.98 80.5257 135.408 67.2109 125.578 61.5491L29.8402 5.70562Z" fill="url(#paint3_linear_145_206)"/>
<path id="Vector_5" style="mix-blend-mode:multiply" opacity="0.45" d="M28.4735 6.44624C18.7581 0.850366 10.8706 5.34353 10.8706 16.4859V155.873C10.8706 167.015 18.7581 180.56 28.4735 186.205L113.541 236.502C123.256 242.098 143.461 224.224 143.461 213.082V91.8656C143.461 80.7232 133.333 67.4906 123.618 61.8948L28.4735 6.44624Z" fill="url(#paint4_linear_145_206)"/>
<path id="Vector_6" style="mix-blend-mode:multiply" opacity="0.55" d="M27.0904 7.20333C17.4903 1.65684 9.68506 6.10062 9.68506 17.0784V155.329C9.68506 166.357 17.4903 179.803 27.0904 185.35L113.178 236.091C122.795 241.638 140.859 226.035 140.859 215.008V91.9479C140.859 80.9207 131.193 67.7869 121.576 62.3227L27.0904 7.20333Z" fill="url(#paint5_linear_145_206)"/>
<path id="Vector_7" style="mix-blend-mode:multiply" opacity="0.64" d="M25.7234 7.96042C16.2057 2.47976 8.49927 6.87416 8.49927 17.8355V154.786C8.49927 165.698 16.2057 178.997 25.7234 184.411L112.898 235.614C122.416 241.094 138.323 227.779 138.323 216.868V92.0302C138.323 81.1182 129.134 68.0667 119.617 62.586L25.7234 7.96042Z" fill="url(#paint6_linear_145_206)"/>
<path id="Vector_8" style="mix-blend-mode:multiply" opacity="0.73" d="M24.3567 8.75043C14.9378 3.31914 7.31372 7.66418 7.31372 18.4609V154.194C7.31372 164.974 14.9378 178.124 24.3567 183.556L112.618 235.186C122.021 240.617 135.803 229.573 135.803 218.727V92.1125C135.803 81.3322 127.06 68.3629 117.69 62.9316L24.3567 8.75043Z" fill="url(#paint7_linear_145_206)"/>
<path id="Vector_9" style="mix-blend-mode:multiply" opacity="0.82" d="M22.9736 9.4746C13.6699 4.09268 6.12817 8.4048 6.12817 19.0699V153.585C6.12817 164.25 13.6699 177.252 22.9736 182.634L112.338 234.708C121.642 240.09 133.284 231.318 133.284 220.653V92.2771C133.284 81.612 125.051 68.725 115.698 63.3596L22.9736 9.4746Z" fill="url(#paint8_linear_145_206)"/>
<path id="Vector_10" style="mix-blend-mode:multiply" opacity="0.91" d="M21.6069 10.2152C12.402 4.91561 4.94263 9.16189 4.94263 19.7118V153.025C4.94263 163.575 12.402 176.446 21.6069 181.745L112.059 234.231C121.247 239.547 130.765 233.063 130.765 222.513V92.2771C130.765 81.7272 122.927 68.9225 113.738 63.6229L21.6069 10.2152Z" fill="url(#paint9_linear_145_206)"/>
<path id="Vector_11" style="mix-blend-mode:multiply" opacity="0.3" d="M20.2401 10.9723C11.134 5.72207 3.77344 9.93543 3.77344 20.3701V152.433C3.77344 162.867 11.1505 175.59 20.2401 180.84L111.779 233.82C120.868 239.07 128.245 234.873 128.245 224.438V92.3594C128.245 81.9247 120.868 69.2188 111.779 63.9685L20.2401 10.9723Z" fill="url(#paint10_linear_145_206)"/>
</g>
<path id="Vector_12" opacity="0.8" d="M17.4737 4.83332C8.15354 -0.515679 0.727051 3.81289 0.727051 14.3792V160.662C0.727051 171.278 8.21941 184.214 17.4737 189.547L105.9 240.815C115.154 246.164 122.663 241.884 122.663 231.269V85.0024C122.663 74.3867 115.154 61.4504 105.9 56.1178L17.4737 4.83332Z" fill="url(#paint11_linear_145_206)"/>
<path id="Vector_13" style="mix-blend-mode:color-dodge" d="M105.9 56.1178L17.4737 4.83332C8.15354 -0.515679 0.727051 3.81289 0.727051 14.3792V16.0251C0.727051 5.40936 8.21941 1.21246 17.4737 6.47916L105.9 57.7637C115.187 63.0633 122.663 75.9996 122.663 86.6153V84.9695C122.663 74.3867 115.187 61.4175 105.9 56.1178Z" fill="url(#paint12_radial_145_206)"/>
<g id="Group_2" style="mix-blend-mode:screen">
<g id="Group_3" style="mix-blend-mode:color-dodge" opacity="0.6">
<path id="Vector_14" style="mix-blend-mode:color-dodge" opacity="0.6" d="M68.3887 60.1666L75.634 64.38V60.8414L68.3887 56.6116V60.1666Z" fill="url(#paint13_linear_145_206)"/>
<path id="Vector_15" style="mix-blend-mode:color-dodge" opacity="0.6" d="M73.4109 89.2487L61.4561 82.3526V85.9076L73.4109 92.8037V89.2487Z" fill="url(#paint14_linear_145_206)"/>
<path id="Vector_16" style="mix-blend-mode:color-dodge" opacity="0.6" d="M72.769 70.3215V66.7665L59.4146 59.212V62.7506L72.769 70.3215Z" fill="url(#paint15_linear_145_206)"/>
<path id="Vector_17" style="mix-blend-mode:color-dodge" opacity="0.6" d="M58.7393 73.2346V76.7897L65.5235 80.7068V77.1517L58.7393 73.2346Z" fill="url(#paint16_linear_145_206)"/>
<path id="Vector_18" style="mix-blend-mode:color-dodge" opacity="0.6" d="M48.4804 78.5178V74.9792L37.4478 68.7415V72.28L48.4804 78.5178Z" fill="url(#paint17_linear_145_206)"/>
<path id="Vector_19" style="mix-blend-mode:color-dodge" opacity="0.6" d="M73.7734 82.007L69.064 79.1926V82.7476L73.7734 85.5455V82.007Z" fill="url(#paint18_linear_145_206)"/>
<path id="Vector_20" style="mix-blend-mode:color-dodge" opacity="0.6" d="M64.9307 69.6302V73.1853L70.5458 76.3782V72.8232L64.9307 69.6302Z" fill="url(#paint19_linear_145_206)"/>
<path id="Vector_21" style="mix-blend-mode:color-dodge" opacity="0.6" d="M79.1909 62.8658V66.4208L82.2373 68.1819V64.6433L79.1909 62.8658Z" fill="url(#paint20_linear_145_206)"/>
<path id="Vector_22" style="mix-blend-mode:color-dodge" opacity="0.6" d="M61.3903 71.1609V67.6223L49.9624 61.1048V64.6598L61.3903 71.1609Z" fill="url(#paint21_linear_145_206)"/>
<path id="Vector_23" style="mix-blend-mode:color-dodge" opacity="0.6" d="M76.3091 68.8073V72.3459L88.3956 79.3407V75.7857L76.3091 68.8073Z" fill="url(#paint22_linear_145_206)"/>
<path id="Vector_24" style="mix-blend-mode:color-dodge" opacity="0.6" d="M55.2484 74.7653V71.2267L40.8894 63.195V66.7335L55.2484 74.7653Z" fill="url(#paint23_linear_145_206)"/>
<path id="Vector_25" style="mix-blend-mode:color-dodge" opacity="0.6" d="M44.3474 42.8688V46.4074L55.5777 52.8262V49.2876L44.3474 42.8688Z" fill="url(#paint24_linear_145_206)"/>
<path id="Vector_26" style="mix-blend-mode:color-dodge" opacity="0.6" d="M64.8321 54.5872L59.1182 51.312V54.867L64.8321 58.1258V54.5872Z" fill="url(#paint25_linear_145_206)"/>
<path id="Vector_27" style="mix-blend-mode:color-dodge" opacity="0.6" d="M57.9488 80.3282L52.0208 76.9872V80.5257L57.9488 83.8832V80.3282Z" fill="url(#paint26_linear_145_206)"/>
<path id="Vector_28" style="mix-blend-mode:color-dodge" opacity="0.6" d="M85.2505 92.1783L100.565 101.082V97.5273L85.2505 88.6233V92.1783Z" fill="url(#paint27_linear_145_206)"/>
<path id="Vector_29" style="mix-blend-mode:color-dodge" opacity="0.6" d="M33.9074 66.7336L28.4734 63.6229V67.1615L33.9074 70.2721V66.7336Z" fill="url(#paint28_linear_145_206)"/>
<path id="Vector_30" style="mix-blend-mode:color-dodge" opacity="0.6" d="M17.3914 27.9574V31.5125L41.4821 45.2223V41.6838L17.3914 27.9574Z" fill="url(#paint29_linear_145_206)"/>
<path id="Vector_31" style="mix-blend-mode:color-dodge" opacity="0.6" d="M88.791 86.8458L94.4556 90.1375V86.5989L88.791 83.2908V86.8458Z" fill="url(#paint30_linear_145_206)"/>
<path id="Vector_32" style="mix-blend-mode:color-dodge" opacity="0.6" d="M91.9526 81.3651L107.876 90.6641V87.1091L91.9526 77.8101V81.3651Z" fill="url(#paint31_linear_145_206)"/>
<path id="Vector_33" style="mix-blend-mode:color-dodge" opacity="0.6" d="M74.1025 78.4026L85.2999 84.8214V81.2828L74.1025 74.8476V78.4026Z" fill="url(#paint32_linear_145_206)"/>
<path id="Vector_34" style="mix-blend-mode:color-dodge" opacity="0.6" d="M85.7939 66.6677V70.2227L98.4898 77.4974V73.9424L85.7939 66.6677Z" fill="url(#paint33_linear_145_206)"/>
<path id="Vector_35" style="mix-blend-mode:color-dodge" opacity="0.6" d="M37.349 61.2035L28.4734 56.2495V59.8045L37.349 64.7585V61.2035Z" fill="url(#paint34_linear_145_206)"/>
<path id="Vector_36" style="mix-blend-mode:color-dodge" opacity="0.6" d="M81.743 86.6153L77.3135 84.0478V87.6029L81.743 90.1539V86.6153Z" fill="url(#paint35_linear_145_206)"/>
<path id="Vector_37" style="mix-blend-mode:color-dodge" opacity="0.6" d="M46.4056 59.0804L28.4734 48.8761V52.4312L46.4056 62.6354V59.0804Z" fill="url(#paint36_linear_145_206)"/>
<path id="Vector_38" style="mix-blend-mode:color-dodge" opacity="0.6" d="M76.7046 101.79L86.3376 107.32V103.782L76.7046 98.235V101.79Z" fill="url(#paint37_linear_145_206)"/>
<path id="Vector_39" style="mix-blend-mode:color-dodge" opacity="0.6" d="M55.874 57.1712L28.4734 41.5027V45.0578L55.874 60.7262V57.1712Z" fill="url(#paint38_linear_145_206)"/>
</g>
<g id="Group_4" style="mix-blend-mode:color-dodge" opacity="0.6">
<path id="Vector_40" style="mix-blend-mode:color-dodge" opacity="0.6" d="M68.3887 169.237L75.634 173.467V169.912L68.3887 165.698V169.237Z" fill="url(#paint39_linear_145_206)"/>
<path id="Vector_41" style="mix-blend-mode:color-dodge" opacity="0.6" d="M73.4109 198.335L61.4561 191.439V194.978L73.4109 201.874V198.335Z" fill="url(#paint40_linear_145_206)"/>
<path id="Vector_42" style="mix-blend-mode:color-dodge" opacity="0.6" d="M72.769 179.408V175.853L59.4146 168.282V171.837L72.769 179.408Z" fill="url(#paint41_linear_145_206)"/>
<path id="Vector_43" style="mix-blend-mode:color-dodge" opacity="0.6" d="M58.7393 182.321V185.86L65.5235 189.777V186.238L58.7393 182.321Z" fill="url(#paint42_linear_145_206)"/>
<path id="Vector_44" style="mix-blend-mode:color-dodge" opacity="0.6" d="M48.4804 187.604V184.049L37.4478 177.812V181.367L48.4804 187.604Z" fill="url(#paint43_linear_145_206)"/>
<path id="Vector_45" style="mix-blend-mode:color-dodge" opacity="0.6" d="M73.7734 191.077L69.064 188.279V191.834L73.7734 194.632V191.077Z" fill="url(#paint44_linear_145_206)"/>
<path id="Vector_46" style="mix-blend-mode:color-dodge" opacity="0.6" d="M64.9307 178.717V182.255L70.5458 185.465V181.91L64.9307 178.717Z" fill="url(#paint45_linear_145_206)"/>
<path id="Vector_47" style="mix-blend-mode:color-dodge" opacity="0.6" d="M79.1909 171.952V175.491L82.2373 177.268V173.713L79.1909 171.952Z" fill="url(#paint46_linear_145_206)"/>
<path id="Vector_48" style="mix-blend-mode:color-dodge" opacity="0.6" d="M61.3903 180.247V176.692L49.9624 170.191V173.73L61.3903 180.247Z" fill="url(#paint47_linear_145_206)"/>
<path id="Vector_49" style="mix-blend-mode:color-dodge" opacity="0.6" d="M76.3091 177.877V181.432L88.3956 188.411V184.872L76.3091 177.877Z" fill="url(#paint48_linear_145_206)"/>
<path id="Vector_50" style="mix-blend-mode:color-dodge" opacity="0.6" d="M55.2484 183.852V180.297L40.8894 172.265V175.82L55.2484 183.852Z" fill="url(#paint49_linear_145_206)"/>
<path id="Vector_51" style="mix-blend-mode:color-dodge" opacity="0.6" d="M44.3474 151.939V155.494L55.5777 161.913V158.374L44.3474 151.939Z" fill="url(#paint50_linear_145_206)"/>
<path id="Vector_52" style="mix-blend-mode:color-dodge" opacity="0.6" d="M64.8321 163.674L59.1182 160.399V163.937L64.8321 167.212V163.674Z" fill="url(#paint51_linear_145_206)"/>
<path id="Vector_53" style="mix-blend-mode:color-dodge" opacity="0.6" d="M57.9488 189.415L52.0208 186.057V189.612L57.9488 192.97V189.415Z" fill="url(#paint52_linear_145_206)"/>
<path id="Vector_54" style="mix-blend-mode:color-dodge" opacity="0.6" d="M85.2505 201.265L100.565 210.152V206.614L85.2505 197.71V201.265Z" fill="url(#paint53_linear_145_206)"/>
<path id="Vector_55" style="mix-blend-mode:color-dodge" opacity="0.6" d="M33.9074 175.804L28.4734 172.693V176.248L33.9074 179.359V175.804Z" fill="url(#paint54_linear_145_206)"/>
<path id="Vector_56" style="mix-blend-mode:color-dodge" opacity="0.6" d="M17.3914 137.044V140.583L41.4821 154.309V150.754L17.3914 137.044Z" fill="url(#paint55_linear_145_206)"/>
<path id="Vector_57" style="mix-blend-mode:color-dodge" opacity="0.6" d="M88.791 195.916L94.4556 199.224V195.686L88.791 192.377V195.916Z" fill="url(#paint56_linear_145_206)"/>
<path id="Vector_58" style="mix-blend-mode:color-dodge" opacity="0.6" d="M91.9526 190.435L107.876 199.751V196.196L91.9526 186.897V190.435Z" fill="url(#paint57_linear_145_206)"/>
<path id="Vector_59" style="mix-blend-mode:color-dodge" opacity="0.6" d="M74.1025 187.473L85.2999 193.908V190.353L74.1025 183.934V187.473Z" fill="url(#paint58_linear_145_206)"/>
<path id="Vector_60" style="mix-blend-mode:color-dodge" opacity="0.6" d="M85.7939 175.754V179.293L98.4898 186.568V183.029L85.7939 175.754Z" fill="url(#paint59_linear_145_206)"/>
<path id="Vector_61" style="mix-blend-mode:color-dodge" opacity="0.6" d="M37.349 170.29L28.4734 165.32V168.875L37.349 173.829V170.29Z" fill="url(#paint60_linear_145_206)"/>
<path id="Vector_62" style="mix-blend-mode:color-dodge" opacity="0.6" d="M81.743 195.702L77.3135 193.134V196.673L81.743 199.241V195.702Z" fill="url(#paint61_linear_145_206)"/>
<path id="Vector_63" style="mix-blend-mode:color-dodge" opacity="0.6" d="M46.4056 168.167L28.4734 157.963V161.501L46.4056 171.706V168.167Z" fill="url(#paint62_linear_145_206)"/>
<path id="Vector_64" style="mix-blend-mode:color-dodge" opacity="0.6" d="M55.874 166.258L28.4734 150.589V154.128L55.874 169.813V166.258Z" fill="url(#paint63_linear_145_206)"/>
</g>
<g id="Group_5" style="mix-blend-mode:color-dodge" opacity="0.6">
<path id="Vector_65" style="mix-blend-mode:color-dodge" opacity="0.6" d="M73.4114 118.545L61.4565 111.649V115.187L73.4114 122.083V118.545Z" fill="url(#paint64_linear_145_206)"/>
<path id="Vector_66" style="mix-blend-mode:color-dodge" opacity="0.6" d="M72.769 99.6175V96.0625L59.4146 88.4916V92.0466L72.769 99.6175Z" fill="url(#paint65_linear_145_206)"/>
<path id="Vector_67" style="mix-blend-mode:color-dodge" opacity="0.6" d="M58.7393 102.531V106.069L65.5235 109.986V106.448L58.7393 102.531Z" fill="url(#paint66_linear_145_206)"/>
<path id="Vector_68" style="mix-blend-mode:color-dodge" opacity="0.6" d="M48.4807 107.814V104.259L37.448 98.0211V101.576L48.4807 107.814Z" fill="url(#paint67_linear_145_206)"/>
<path id="Vector_69" style="mix-blend-mode:color-dodge" opacity="0.6" d="M73.7734 111.287L69.064 108.489V112.044L73.7734 114.842V111.287Z" fill="url(#paint68_linear_145_206)"/>
<path id="Vector_70" style="mix-blend-mode:color-dodge" opacity="0.6" d="M64.9307 98.9263V102.465L70.5458 105.674V102.119L64.9307 98.9263Z" fill="url(#paint69_linear_145_206)"/>
<path id="Vector_71" style="mix-blend-mode:color-dodge" opacity="0.6" d="M61.3905 100.457V96.9019L49.9626 90.4008V93.9394L61.3905 100.457Z" fill="url(#paint70_linear_145_206)"/>
<path id="Vector_72" style="mix-blend-mode:color-dodge" opacity="0.6" d="M55.2484 104.061V100.506L40.8894 92.491V96.0296L55.2484 104.061Z" fill="url(#paint71_linear_145_206)"/>
<path id="Vector_73" style="mix-blend-mode:color-dodge" opacity="0.6" d="M57.949 109.624L52.021 106.267V109.822L57.949 113.179V109.624Z" fill="url(#paint72_linear_145_206)"/>
<path id="Vector_74" style="mix-blend-mode:color-dodge" opacity="0.6" d="M85.251 121.474L100.565 130.362V126.823L85.251 117.919V121.474Z" fill="url(#paint73_linear_145_206)"/>
<path id="Vector_75" style="mix-blend-mode:color-dodge" opacity="0.6" d="M33.9077 96.0296L28.4736 92.9189V96.4575L33.9077 99.5682V96.0296Z" fill="url(#paint74_linear_145_206)"/>
<path id="Vector_76" style="mix-blend-mode:color-dodge" opacity="0.6" d="M88.791 116.142L94.4556 119.434V115.895L88.791 112.587V116.142Z" fill="url(#paint75_linear_145_206)"/>
<path id="Vector_77" style="mix-blend-mode:color-dodge" opacity="0.6" d="M74.1025 107.682L85.2999 114.117V110.579L74.1025 104.144V107.682Z" fill="url(#paint76_linear_145_206)"/>
<path id="Vector_78" style="mix-blend-mode:color-dodge" opacity="0.6" d="M37.3492 90.4995L28.4736 85.5455V89.0841L37.3492 94.0546V90.4995Z" fill="url(#paint77_linear_145_206)"/>
<path id="Vector_79" style="mix-blend-mode:color-dodge" opacity="0.6" d="M81.7435 115.911L77.314 113.344V116.882L81.7435 119.45V115.911Z" fill="url(#paint78_linear_145_206)"/>
<path id="Vector_80" style="mix-blend-mode:color-dodge" opacity="0.6" d="M46.4059 88.3764L28.4736 78.1721V81.7107L46.4059 91.9314V88.3764Z" fill="url(#paint79_linear_145_206)"/>
<path id="Vector_81" style="mix-blend-mode:color-dodge" opacity="0.6" d="M56.8127 116.109V119.647L62.4114 122.857V119.302L56.8127 116.109Z" fill="url(#paint80_linear_145_206)"/>
<path id="Vector_82" style="mix-blend-mode:color-dodge" opacity="0.6" d="M53.256 117.64V114.084L41.8281 107.583V111.122L53.256 117.64Z" fill="url(#paint81_linear_145_206)"/>
<path id="Vector_83" style="mix-blend-mode:color-dodge" opacity="0.6" d="M80.6729 133.324L86.3374 136.616V133.078L80.6729 129.769V133.324Z" fill="url(#paint82_linear_145_206)"/>
<path id="Vector_84" style="mix-blend-mode:color-dodge" opacity="0.6" d="M65.9683 124.865L77.1656 131.3V127.761L65.9683 121.326V124.865Z" fill="url(#paint83_linear_145_206)"/>
<path id="Vector_85" style="mix-blend-mode:color-dodge" opacity="0.6" d="M38.2877 105.559L20.3555 95.3548V98.8934L38.2877 109.114V105.559Z" fill="url(#paint84_linear_145_206)"/>
<path id="Vector_86" style="mix-blend-mode:color-dodge" opacity="0.6" d="M55.8743 86.4672L28.4736 70.7988V74.3538L55.8743 90.0222V86.4672Z" fill="url(#paint85_linear_145_206)"/>
</g>
<g id="Group_6" style="mix-blend-mode:color-dodge" opacity="0.6">
<path id="Vector_87" style="mix-blend-mode:color-dodge" opacity="0.6" d="M73.4114 154.836L61.4565 147.94V151.478L73.4114 158.374V154.836Z" fill="url(#paint86_linear_145_206)"/>
<path id="Vector_88" style="mix-blend-mode:color-dodge" opacity="0.6" d="M72.769 135.908V132.353L59.4146 124.783V128.338L72.769 135.908Z" fill="url(#paint87_linear_145_206)"/>
<path id="Vector_89" style="mix-blend-mode:color-dodge" opacity="0.6" d="M58.7393 138.822V142.36L65.5235 146.277V142.739L58.7393 138.822Z" fill="url(#paint88_linear_145_206)"/>
<path id="Vector_90" style="mix-blend-mode:color-dodge" opacity="0.6" d="M48.4807 144.105V140.55L37.448 134.312V137.867L48.4807 144.105Z" fill="url(#paint89_linear_145_206)"/>
<path id="Vector_91" style="mix-blend-mode:color-dodge" opacity="0.6" d="M73.7734 147.577L69.064 144.78V148.335L73.7734 151.132V147.577Z" fill="url(#paint90_linear_145_206)"/>
<path id="Vector_92" style="mix-blend-mode:color-dodge" opacity="0.6" d="M64.9307 135.217V138.756L70.5458 141.965V138.41L64.9307 135.217Z" fill="url(#paint91_linear_145_206)"/>
<path id="Vector_93" style="mix-blend-mode:color-dodge" opacity="0.6" d="M61.3905 136.748V133.193L49.9626 126.692V130.23L61.3905 136.748Z" fill="url(#paint92_linear_145_206)"/>
<path id="Vector_94" style="mix-blend-mode:color-dodge" opacity="0.6" d="M55.2484 140.352V136.797L40.8894 128.765V132.32L55.2484 140.352Z" fill="url(#paint93_linear_145_206)"/>
<path id="Vector_95" style="mix-blend-mode:color-dodge" opacity="0.6" d="M57.949 145.915L52.021 142.558V146.113L57.949 149.47V145.915Z" fill="url(#paint94_linear_145_206)"/>
<path id="Vector_96" style="mix-blend-mode:color-dodge" opacity="0.6" d="M85.251 157.765L100.565 166.653V163.114L85.251 154.21V157.765Z" fill="url(#paint95_linear_145_206)"/>
<path id="Vector_97" style="mix-blend-mode:color-dodge" opacity="0.6" d="M33.9077 132.32L28.4736 129.21V132.748L33.9077 135.859V132.32Z" fill="url(#paint96_linear_145_206)"/>
<path id="Vector_98" style="mix-blend-mode:color-dodge" opacity="0.6" d="M88.791 152.433L94.4556 155.724V152.186L88.791 148.878V152.433Z" fill="url(#paint97_linear_145_206)"/>
<path id="Vector_99" style="mix-blend-mode:color-dodge" opacity="0.6" d="M74.1025 143.973L85.2999 150.408V146.87L74.1025 140.434V143.973Z" fill="url(#paint98_linear_145_206)"/>
<path id="Vector_100" style="mix-blend-mode:color-dodge" opacity="0.6" d="M37.3492 126.79L28.4736 121.836V125.375L37.3492 130.345V126.79Z" fill="url(#paint99_linear_145_206)"/>
<path id="Vector_101" style="mix-blend-mode:color-dodge" opacity="0.6" d="M81.7435 152.202L77.314 149.635V153.173L81.7435 155.741V152.202Z" fill="url(#paint100_linear_145_206)"/>
<path id="Vector_102" style="mix-blend-mode:color-dodge" opacity="0.6" d="M46.4059 124.667L28.4736 114.463V118.002L46.4059 128.222V124.667Z" fill="url(#paint101_linear_145_206)"/>
<path id="Vector_103" style="mix-blend-mode:color-dodge" opacity="0.6" d="M56.8127 152.4V155.938L62.4114 159.148V155.593L56.8127 152.4Z" fill="url(#paint102_linear_145_206)"/>
<path id="Vector_104" style="mix-blend-mode:color-dodge" opacity="0.6" d="M53.256 153.93V150.375L41.8281 143.874V147.413L53.256 153.93Z" fill="url(#paint103_linear_145_206)"/>
<path id="Vector_105" style="mix-blend-mode:color-dodge" opacity="0.6" d="M80.6729 169.615L86.3374 172.907V169.368L80.6729 166.06V169.615Z" fill="url(#paint104_linear_145_206)"/>
<path id="Vector_106" style="mix-blend-mode:color-dodge" opacity="0.6" d="M65.9683 161.156L77.1656 167.591V164.052L65.9683 157.617V161.156Z" fill="url(#paint105_linear_145_206)"/>
<path id="Vector_107" style="mix-blend-mode:color-dodge" opacity="0.6" d="M38.2877 141.85L28.0454 135.991V139.529L38.2877 145.405V141.85Z" fill="url(#paint106_linear_145_206)"/>
<path id="Vector_108" style="mix-blend-mode:color-dodge" opacity="0.6" d="M55.8743 122.758L28.4736 107.09V110.645L55.8743 126.313V122.758Z" fill="url(#paint107_linear_145_206)"/>
</g>
</g>
</g>
<defs>
<linearGradient id="paint0_linear_145_206" x1="-27.4309" y1="-87.2682" x2="106.799" y2="168.782" gradientUnits="userSpaceOnUse">
<stop offset="0.01" stop-color="#9F19AB"/>
<stop offset="0.43" stop-color="#5F27BD"/>
<stop offset="0.9" stop-color="#3D065F"/>
</linearGradient>
<linearGradient id="paint1_linear_145_206" x1="-28.6001" y1="-86.3136" x2="105.366" y2="169.243" gradientUnits="userSpaceOnUse">
<stop offset="0.01" stop-color="#9F19AB"/>
<stop offset="0.43" stop-color="#5F27BD"/>
<stop offset="0.9" stop-color="#3D065F"/>
</linearGradient>
<linearGradient id="paint2_linear_145_206" x1="-29.7692" y1="-85.3755" x2="103.95" y2="169.72" gradientUnits="userSpaceOnUse">
<stop offset="0.01" stop-color="#9F19AB"/>
<stop offset="0.43" stop-color="#5F27BD"/>
<stop offset="0.9" stop-color="#3D065F"/>
</linearGradient>
<linearGradient id="paint3_linear_145_206" x1="-30.9549" y1="-84.4373" x2="102.534" y2="170.214" gradientUnits="userSpaceOnUse">
<stop offset="0.01" stop-color="#9F19AB"/>
<stop offset="0.43" stop-color="#5F27BD"/>
<stop offset="0.9" stop-color="#3D065F"/>
</linearGradient>
<linearGradient id="paint4_linear_145_206" x1="-32.124" y1="-83.5157" x2="101.135" y2="170.707" gradientUnits="userSpaceOnUse">
<stop offset="0.01" stop-color="#9F19AB"/>
<stop offset="0.43" stop-color="#5F27BD"/>
<stop offset="0.9" stop-color="#3D065F"/>
</linearGradient>
<linearGradient id="paint5_linear_145_206" x1="-33.3095" y1="-82.594" x2="99.7356" y2="171.217" gradientUnits="userSpaceOnUse">
<stop offset="0.01" stop-color="#9F19AB"/>
<stop offset="0.43" stop-color="#5F27BD"/>
<stop offset="0.9" stop-color="#3D065F"/>
</linearGradient>
<linearGradient id="paint6_linear_145_206" x1="-34.4953" y1="-81.6888" x2="98.3523" y2="171.76" gradientUnits="userSpaceOnUse">
<stop offset="0.01" stop-color="#9F19AB"/>
<stop offset="0.43" stop-color="#5F27BD"/>
<stop offset="0.9" stop-color="#3D065F"/>
</linearGradient>
<linearGradient id="paint7_linear_145_206" x1="-35.6808" y1="-80.8" x2="96.9858" y2="172.303" gradientUnits="userSpaceOnUse">
<stop offset="0.01" stop-color="#9F19AB"/>
<stop offset="0.43" stop-color="#5F27BD"/>
<stop offset="0.9" stop-color="#3D065F"/>
</linearGradient>
<linearGradient id="paint8_linear_145_206" x1="-36.8664" y1="-79.9277" x2="95.6357" y2="172.879" gradientUnits="userSpaceOnUse">
<stop offset="0.01" stop-color="#9F19AB"/>
<stop offset="0.43" stop-color="#5F27BD"/>
<stop offset="0.9" stop-color="#3D065F"/>
</linearGradient>
<linearGradient id="paint9_linear_145_206" x1="-38.0684" y1="-79.0554" x2="94.3021" y2="173.472" gradientUnits="userSpaceOnUse">
<stop offset="0.01" stop-color="#9F19AB"/>
<stop offset="0.43" stop-color="#5F27BD"/>
<stop offset="0.9" stop-color="#3D065F"/>
</linearGradient>
<linearGradient id="paint10_linear_145_206" x1="-39.2541" y1="-78.216" x2="92.9848" y2="174.081" gradientUnits="userSpaceOnUse">
<stop offset="0.01" stop-color="#9F19AB"/>
<stop offset="0.43" stop-color="#5F27BD"/>
<stop offset="0.9" stop-color="#3D065F"/>
</linearGradient>
<linearGradient id="paint11_linear_145_206" x1="128.344" y1="252.977" x2="-82.9206" y2="-159.936" gradientUnits="userSpaceOnUse">
<stop offset="0.02" stop-color="#00FA89"/>
<stop offset="0.19" stop-color="#0DD698"/>
<stop offset="0.57" stop-color="#2D7ABE"/>
<stop offset="1" stop-color="#530CEB"/>
</linearGradient>
<radialGradient id="paint12_radial_145_206" cx="0" cy="0" r="1" gradientUnits="userSpaceOnUse" gradientTransform="translate(61.6868 44.5805) scale(114.279 114.222)">
<stop stop-color="#711F56"/>
<stop offset="0.16" stop-color="#6C1E52"/>
<stop offset="0.36" stop-color="#5C1946"/>
<stop offset="0.58" stop-color="#431233"/>
<stop offset="0.82" stop-color="#200918"/>
<stop offset="1"/>
</radialGradient>
<linearGradient id="paint13_linear_145_206" x1="68.3722" y1="60.4958" x2="75.6505" y2="60.4958" gradientUnits="userSpaceOnUse">
<stop stop-color="#3D065F"/>
<stop offset="1" stop-color="#5F27BD"/>
</linearGradient>
<linearGradient id="paint14_linear_145_206" x1="61.4561" y1="87.57" x2="73.4109" y2="87.57" gradientUnits="userSpaceOnUse">
<stop stop-color="#3D065F"/>
<stop offset="1" stop-color="#5F27BD"/>
</linearGradient>
<linearGradient id="paint15_linear_145_206" x1="59.4146" y1="64.7585" x2="72.769" y2="64.7585" gradientUnits="userSpaceOnUse">
<stop offset="0.04" stop-color="#9F19AB"/>
<stop offset="0.24" stop-color="#AE25B1"/>
<stop offset="0.65" stop-color="#D744BF"/>
<stop offset="1" stop-color="#FF63CE"/>
</linearGradient>
<linearGradient id="paint16_linear_145_206" x1="58.7393" y1="76.9707" x2="65.5235" y2="76.9707" gradientUnits="userSpaceOnUse">
<stop stop-color="#3D065F"/>
<stop offset="1" stop-color="#5F27BD"/>
</linearGradient>
<linearGradient id="paint17_linear_145_206" x1="37.4478" y1="73.6296" x2="48.4804" y2="73.6296" gradientUnits="userSpaceOnUse">
<stop stop-color="#3D065F"/>
<stop offset="1" stop-color="#5F27BD"/>
</linearGradient>
<linearGradient id="paint18_linear_145_206" x1="69.064" y1="82.3691" x2="73.7734" y2="82.3691" gradientUnits="userSpaceOnUse">
<stop stop-color="#3D065F"/>
<stop offset="1" stop-color="#5F27BD"/>
</linearGradient>
<linearGradient id="paint19_linear_145_206" x1="64.9307" y1="73.0042" x2="70.5458" y2="73.0042" gradientUnits="userSpaceOnUse">
<stop offset="0.04" stop-color="#9F19AB"/>
<stop offset="0.24" stop-color="#AE25B1"/>
<stop offset="0.65" stop-color="#D744BF"/>
<stop offset="1" stop-color="#FF63CE"/>
</linearGradient>
<linearGradient id="paint20_linear_145_206" x1="79.1909" y1="65.5321" x2="82.2373" y2="65.5321" gradientUnits="userSpaceOnUse">
<stop stop-color="#3D065F"/>
<stop offset="1" stop-color="#5F27BD"/>
</linearGradient>
<linearGradient id="paint21_linear_145_206" x1="49.9624" y1="66.141" x2="61.3903" y2="66.141" gradientUnits="userSpaceOnUse">
<stop stop-color="#3D065F"/>
<stop offset="1" stop-color="#5F27BD"/>
</linearGradient>
<linearGradient id="paint22_linear_145_206" x1="76.3091" y1="74.074" x2="88.3956" y2="74.074" gradientUnits="userSpaceOnUse">
<stop stop-color="#3D065F"/>
<stop offset="1" stop-color="#5F27BD"/>
</linearGradient>
<linearGradient id="paint23_linear_145_206" x1="40.8894" y1="68.9719" x2="55.2484" y2="68.9719" gradientUnits="userSpaceOnUse">
<stop offset="0.04" stop-color="#FFA98C"/>
<stop offset="0.32" stop-color="#FFB892"/>
<stop offset="0.86" stop-color="#FEE1A3"/>
<stop offset="1" stop-color="#FEECA8"/>
</linearGradient>
<linearGradient id="paint24_linear_145_206" x1="44.3474" y1="47.8557" x2="55.5777" y2="47.8557" gradientUnits="userSpaceOnUse">
<stop offset="0.04" stop-color="#9F19AB"/>
<stop offset="0.24" stop-color="#AE25B1"/>
<stop offset="0.65" stop-color="#D744BF"/>
<stop offset="1" stop-color="#FF63CE"/>
</linearGradient>
<linearGradient id="paint25_linear_145_206" x1="59.1182" y1="54.7189" x2="64.8321" y2="54.7189" gradientUnits="userSpaceOnUse">
<stop stop-color="#3D065F"/>
<stop offset="1" stop-color="#5F27BD"/>
</linearGradient>
<linearGradient id="paint26_linear_145_206" x1="52.0208" y1="80.427" x2="57.9488" y2="80.427" gradientUnits="userSpaceOnUse">
<stop offset="0.04" stop-color="#9F19AB"/>
<stop offset="0.24" stop-color="#AE25B1"/>
<stop offset="0.65" stop-color="#D744BF"/>
<stop offset="1" stop-color="#FF63CE"/>
</linearGradient>
<linearGradient id="paint27_linear_145_206" x1="85.2505" y1="94.861" x2="100.565" y2="94.861" gradientUnits="userSpaceOnUse">
<stop stop-color="#3D065F"/>
<stop offset="1" stop-color="#5F27BD"/>
</linearGradient>
<linearGradient id="paint28_linear_145_206" x1="28.4734" y1="66.9475" x2="33.9074" y2="66.9475" gradientUnits="userSpaceOnUse">
<stop stop-color="#3D065F"/>
<stop offset="1" stop-color="#5F27BD"/>
</linearGradient>
<linearGradient id="paint29_linear_145_206" x1="17.3914" y1="36.5981" x2="41.4821" y2="36.5981" gradientUnits="userSpaceOnUse">
<stop offset="0.04" stop-color="#FFA98C"/>
<stop offset="0.32" stop-color="#FFB892"/>
<stop offset="0.86" stop-color="#FEE1A3"/>
<stop offset="1" stop-color="#FEECA8"/>
</linearGradient>
<linearGradient id="paint30_linear_145_206" x1="88.791" y1="86.7141" x2="94.4556" y2="86.7141" gradientUnits="userSpaceOnUse">
<stop stop-color="#3D065F"/>
<stop offset="1" stop-color="#5F27BD"/>
</linearGradient>
<linearGradient id="paint31_linear_145_206" x1="91.9526" y1="84.2453" x2="107.876" y2="84.2453" gradientUnits="userSpaceOnUse">
<stop stop-color="#3D065F"/>
<stop offset="1" stop-color="#5F27BD"/>
</linearGradient>
<linearGradient id="paint32_linear_145_206" x1="74.0861" y1="79.8345" x2="85.2999" y2="79.8345" gradientUnits="userSpaceOnUse">
<stop offset="0.04" stop-color="#9F19AB"/>
<stop offset="0.24" stop-color="#AE25B1"/>
<stop offset="0.65" stop-color="#D744BF"/>
<stop offset="1" stop-color="#FF63CE"/>
</linearGradient>
<linearGradient id="paint33_linear_145_206" x1="85.7939" y1="72.0825" x2="98.5062" y2="72.0825" gradientUnits="userSpaceOnUse">
<stop stop-color="#3D065F"/>
<stop offset="1" stop-color="#5F27BD"/>
</linearGradient>
<linearGradient id="paint34_linear_145_206" x1="28.4734" y1="60.4958" x2="37.349" y2="60.4958" gradientUnits="userSpaceOnUse">
<stop stop-color="#3D065F"/>
<stop offset="1" stop-color="#5F27BD"/>
</linearGradient>
<linearGradient id="paint35_linear_145_206" x1="77.3135" y1="87.1091" x2="81.7595" y2="87.1091" gradientUnits="userSpaceOnUse">
<stop stop-color="#3D065F"/>
<stop offset="1" stop-color="#5F27BD"/>
</linearGradient>
<linearGradient id="paint36_linear_145_206" x1="28.4734" y1="55.7558" x2="46.4056" y2="55.7558" gradientUnits="userSpaceOnUse">
<stop offset="0.04" stop-color="#9F19AB"/>
<stop offset="0.24" stop-color="#AE25B1"/>
<stop offset="0.65" stop-color="#D744BF"/>
<stop offset="1" stop-color="#FF63CE"/>
</linearGradient>
<linearGradient id="paint37_linear_145_206" x1="76.7046" y1="102.778" x2="86.3376" y2="102.778" gradientUnits="userSpaceOnUse">
<stop stop-color="#3D065F"/>
<stop offset="1" stop-color="#5F27BD"/>
</linearGradient>
<linearGradient id="paint38_linear_145_206" x1="28.4734" y1="51.1145" x2="55.874" y2="51.1145" gradientUnits="userSpaceOnUse">
<stop offset="0.04" stop-color="#FFA98C"/>
<stop offset="0.32" stop-color="#FFB892"/>
<stop offset="0.86" stop-color="#FEE1A3"/>
<stop offset="1" stop-color="#FEECA8"/>
</linearGradient>
<linearGradient id="paint39_linear_145_206" x1="68.3722" y1="169.582" x2="75.6505" y2="169.582" gradientUnits="userSpaceOnUse">
<stop stop-color="#3D065F"/>
<stop offset="1" stop-color="#5F27BD"/>
</linearGradient>
<linearGradient id="paint40_linear_145_206" x1="61.4561" y1="196.657" x2="73.4109" y2="196.657" gradientUnits="userSpaceOnUse">
<stop stop-color="#3D065F"/>
<stop offset="1" stop-color="#5F27BD"/>
</linearGradient>
<linearGradient id="paint41_linear_145_206" x1="59.4146" y1="173.845" x2="72.769" y2="173.845" gradientUnits="userSpaceOnUse">
<stop offset="0.04" stop-color="#FFA98C"/>
<stop offset="0.32" stop-color="#FFB892"/>
<stop offset="0.86" stop-color="#FEE1A3"/>
<stop offset="1" stop-color="#FEECA8"/>
</linearGradient>
<linearGradient id="paint42_linear_145_206" x1="58.7393" y1="186.041" x2="65.5235" y2="186.041" gradientUnits="userSpaceOnUse">
<stop stop-color="#3D065F"/>
<stop offset="1" stop-color="#5F27BD"/>
</linearGradient>
<linearGradient id="paint43_linear_145_206" x1="37.4478" y1="182.716" x2="48.4804" y2="182.716" gradientUnits="userSpaceOnUse">
<stop stop-color="#3D065F"/>
<stop offset="1" stop-color="#5F27BD"/>
</linearGradient>
<linearGradient id="paint44_linear_145_206" x1="69.064" y1="191.456" x2="73.7734" y2="191.456" gradientUnits="userSpaceOnUse">
<stop stop-color="#3D065F"/>
<stop offset="1" stop-color="#5F27BD"/>
</linearGradient>
<linearGradient id="paint45_linear_145_206" x1="64.9307" y1="182.091" x2="70.5458" y2="182.091" gradientUnits="userSpaceOnUse">
<stop offset="0.04" stop-color="#9F19AB"/>
<stop offset="0.24" stop-color="#AE25B1"/>
<stop offset="0.65" stop-color="#D744BF"/>
<stop offset="1" stop-color="#FF63CE"/>
</linearGradient>
<linearGradient id="paint46_linear_145_206" x1="79.1909" y1="174.602" x2="82.2373" y2="174.602" gradientUnits="userSpaceOnUse">
<stop stop-color="#3D065F"/>
<stop offset="1" stop-color="#5F27BD"/>
</linearGradient>
<linearGradient id="paint47_linear_145_206" x1="49.9624" y1="175.211" x2="61.3903" y2="175.211" gradientUnits="userSpaceOnUse">
<stop stop-color="#3D065F"/>
<stop offset="1" stop-color="#5F27BD"/>
</linearGradient>
<linearGradient id="paint48_linear_145_206" x1="76.3091" y1="183.144" x2="88.3956" y2="183.144" gradientUnits="userSpaceOnUse">
<stop stop-color="#3D065F"/>
<stop offset="1" stop-color="#5F27BD"/>
</linearGradient>
<linearGradient id="paint49_linear_145_206" x1="40.8894" y1="178.059" x2="55.2484" y2="178.059" gradientUnits="userSpaceOnUse">
<stop offset="0.04" stop-color="#FFA98C"/>
<stop offset="0.32" stop-color="#FFB892"/>
<stop offset="0.86" stop-color="#FEE1A3"/>
<stop offset="1" stop-color="#FEECA8"/>
</linearGradient>
<linearGradient id="paint50_linear_145_206" x1="44.3474" y1="156.926" x2="55.5777" y2="156.926" gradientUnits="userSpaceOnUse">
<stop stop-color="#3D065F"/>
<stop offset="1" stop-color="#5F27BD"/>
</linearGradient>
<linearGradient id="paint51_linear_145_206" x1="59.1182" y1="163.805" x2="64.8321" y2="163.805" gradientUnits="userSpaceOnUse">
<stop stop-color="#3D065F"/>
<stop offset="1" stop-color="#5F27BD"/>
</linearGradient>
<linearGradient id="paint52_linear_145_206" x1="52.0208" y1="189.514" x2="57.9488" y2="189.514" gradientUnits="userSpaceOnUse">
<stop stop-color="#3D065F"/>
<stop offset="1" stop-color="#5F27BD"/>
</linearGradient>
<linearGradient id="paint53_linear_145_206" x1="85.2505" y1="203.931" x2="100.565" y2="203.931" gradientUnits="userSpaceOnUse">
<stop stop-color="#3D065F"/>
<stop offset="1" stop-color="#5F27BD"/>
</linearGradient>
<linearGradient id="paint54_linear_145_206" x1="28.4734" y1="176.034" x2="33.9074" y2="176.034" gradientUnits="userSpaceOnUse">
<stop stop-color="#3D065F"/>
<stop offset="1" stop-color="#5F27BD"/>
</linearGradient>
<linearGradient id="paint55_linear_145_206" x1="17.3914" y1="145.668" x2="41.4821" y2="145.668" gradientUnits="userSpaceOnUse">
<stop offset="0.04" stop-color="#FFA98C"/>
<stop offset="0.32" stop-color="#FFB892"/>
<stop offset="0.86" stop-color="#FEE1A3"/>
<stop offset="1" stop-color="#FEECA8"/>
</linearGradient>
<linearGradient id="paint56_linear_145_206" x1="88.791" y1="195.801" x2="94.4556" y2="195.801" gradientUnits="userSpaceOnUse">
<stop stop-color="#3D065F"/>
<stop offset="1" stop-color="#5F27BD"/>
</linearGradient>
<linearGradient id="paint57_linear_145_206" x1="91.9526" y1="193.316" x2="107.876" y2="193.316" gradientUnits="userSpaceOnUse">
<stop stop-color="#3D065F"/>
<stop offset="1" stop-color="#5F27BD"/>
</linearGradient>
<linearGradient id="paint58_linear_145_206" x1="74.0861" y1="188.921" x2="85.2999" y2="188.921" gradientUnits="userSpaceOnUse">
<stop stop-color="#3D065F"/>
<stop offset="1" stop-color="#5F27BD"/>
</linearGradient>
<linearGradient id="paint59_linear_145_206" x1="85.7939" y1="181.153" x2="98.5062" y2="181.153" gradientUnits="userSpaceOnUse">
<stop offset="0.04" stop-color="#9F19AB"/>
<stop offset="0.24" stop-color="#AE25B1"/>
<stop offset="0.65" stop-color="#D744BF"/>
<stop offset="1" stop-color="#FF63CE"/>
</linearGradient>
<linearGradient id="paint60_linear_145_206" x1="28.4734" y1="169.582" x2="37.349" y2="169.582" gradientUnits="userSpaceOnUse">
<stop offset="0.04" stop-color="#9F19AB"/>
<stop offset="0.24" stop-color="#AE25B1"/>
<stop offset="0.65" stop-color="#D744BF"/>
<stop offset="1" stop-color="#FF63CE"/>
</linearGradient>
<linearGradient id="paint61_linear_145_206" x1="77.3135" y1="196.179" x2="81.7595" y2="196.179" gradientUnits="userSpaceOnUse">
<stop offset="0.04" stop-color="#9F19AB"/>
<stop offset="0.24" stop-color="#AE25B1"/>
<stop offset="0.65" stop-color="#D744BF"/>
<stop offset="1" stop-color="#FF63CE"/>
</linearGradient>
<linearGradient id="paint62_linear_145_206" x1="28.4734" y1="164.842" x2="46.4056" y2="164.842" gradientUnits="userSpaceOnUse">
<stop stop-color="#3D065F"/>
<stop offset="1" stop-color="#5F27BD"/>
</linearGradient>
<linearGradient id="paint63_linear_145_206" x1="28.4734" y1="160.201" x2="55.874" y2="160.201" gradientUnits="userSpaceOnUse">
<stop offset="0.04" stop-color="#9F19AB"/>
<stop offset="0.24" stop-color="#AE25B1"/>
<stop offset="0.65" stop-color="#D744BF"/>
<stop offset="1" stop-color="#FF63CE"/>
</linearGradient>
<linearGradient id="paint64_linear_145_206" x1="61.4565" y1="116.866" x2="73.4114" y2="116.866" gradientUnits="userSpaceOnUse">
<stop stop-color="#3D065F"/>
<stop offset="1" stop-color="#5F27BD"/>
</linearGradient>
<linearGradient id="paint65_linear_145_206" x1="59.4146" y1="94.0546" x2="72.769" y2="94.0546" gradientUnits="userSpaceOnUse">
<stop stop-color="#3D065F"/>
<stop offset="1" stop-color="#5F27BD"/>
</linearGradient>
<linearGradient id="paint66_linear_145_206" x1="58.7393" y1="106.25" x2="65.5235" y2="106.25" gradientUnits="userSpaceOnUse">
<stop stop-color="#3D065F"/>
<stop offset="1" stop-color="#5F27BD"/>
</linearGradient>
<linearGradient id="paint67_linear_145_206" x1="37.448" y1="102.926" x2="48.4807" y2="102.926" gradientUnits="userSpaceOnUse">
<stop offset="0.04" stop-color="#9F19AB"/>
<stop offset="0.24" stop-color="#AE25B1"/>
<stop offset="0.65" stop-color="#D744BF"/>
<stop offset="1" stop-color="#FF63CE"/>
</linearGradient>
<linearGradient id="paint68_linear_145_206" x1="69.064" y1="111.665" x2="73.7734" y2="111.665" gradientUnits="userSpaceOnUse">
<stop stop-color="#3D065F"/>
<stop offset="1" stop-color="#5F27BD"/>
</linearGradient>
<linearGradient id="paint69_linear_145_206" x1="64.9307" y1="102.3" x2="70.5458" y2="102.3" gradientUnits="userSpaceOnUse">
<stop offset="0.04" stop-color="#9F19AB"/>
<stop offset="0.24" stop-color="#AE25B1"/>
<stop offset="0.65" stop-color="#D744BF"/>
<stop offset="1" stop-color="#FF63CE"/>
</linearGradient>
<linearGradient id="paint70_linear_145_206" x1="49.9626" y1="95.4206" x2="61.3905" y2="95.4206" gradientUnits="userSpaceOnUse">
<stop stop-color="#3D065F"/>
<stop offset="1" stop-color="#5F27BD"/>
</linearGradient>
<linearGradient id="paint71_linear_145_206" x1="40.8894" y1="98.2679" x2="55.2484" y2="98.2679" gradientUnits="userSpaceOnUse">
<stop stop-color="#3D065F"/>
<stop offset="1" stop-color="#5F27BD"/>
</linearGradient>
<linearGradient id="paint72_linear_145_206" x1="52.021" y1="109.723" x2="57.949" y2="109.723" gradientUnits="userSpaceOnUse">
<stop offset="0.04" stop-color="#9F19AB"/>
<stop offset="0.24" stop-color="#AE25B1"/>
<stop offset="0.65" stop-color="#D744BF"/>
<stop offset="1" stop-color="#FF63CE"/>
</linearGradient>
<linearGradient id="paint73_linear_145_206" x1="85.251" y1="124.141" x2="100.565" y2="124.141" gradientUnits="userSpaceOnUse">
<stop stop-color="#3D065F"/>
<stop offset="1" stop-color="#5F27BD"/>
</linearGradient>
<linearGradient id="paint74_linear_145_206" x1="28.4736" y1="96.2436" x2="33.9077" y2="96.2436" gradientUnits="userSpaceOnUse">
<stop stop-color="#3D065F"/>
<stop offset="1" stop-color="#5F27BD"/>
</linearGradient>
<linearGradient id="paint75_linear_145_206" x1="88.791" y1="116.01" x2="94.4556" y2="116.01" gradientUnits="userSpaceOnUse">
<stop stop-color="#3D065F"/>
<stop offset="1" stop-color="#5F27BD"/>
</linearGradient>
<linearGradient id="paint76_linear_145_206" x1="74.0861" y1="109.131" x2="85.2999" y2="109.131" gradientUnits="userSpaceOnUse">
<stop stop-color="#3D065F"/>
<stop offset="1" stop-color="#5F27BD"/>
</linearGradient>
<linearGradient id="paint77_linear_145_206" x1="28.4736" y1="89.7918" x2="37.3492" y2="89.7918" gradientUnits="userSpaceOnUse">
<stop offset="0.04" stop-color="#9F19AB"/>
<stop offset="0.24" stop-color="#AE25B1"/>
<stop offset="0.65" stop-color="#D744BF"/>
<stop offset="1" stop-color="#FF63CE"/>
</linearGradient>
<linearGradient id="paint78_linear_145_206" x1="77.314" y1="116.389" x2="81.76" y2="116.389" gradientUnits="userSpaceOnUse">
<stop stop-color="#3D065F"/>
<stop offset="1" stop-color="#5F27BD"/>
</linearGradient>
<linearGradient id="paint79_linear_145_206" x1="28.4736" y1="85.0518" x2="46.4059" y2="85.0518" gradientUnits="userSpaceOnUse">
<stop stop-color="#3D065F"/>
<stop offset="1" stop-color="#5F27BD"/>
</linearGradient>
<linearGradient id="paint80_linear_145_206" x1="56.7963" y1="119.483" x2="62.4279" y2="119.483" gradientUnits="userSpaceOnUse">
<stop stop-color="#3D065F"/>
<stop offset="1" stop-color="#5F27BD"/>
</linearGradient>
<linearGradient id="paint81_linear_145_206" x1="41.8281" y1="112.603" x2="53.256" y2="112.603" gradientUnits="userSpaceOnUse">
<stop offset="0.04" stop-color="#FFA98C"/>
<stop offset="0.32" stop-color="#FFB892"/>
<stop offset="0.86" stop-color="#FEE1A3"/>
<stop offset="1" stop-color="#FEECA8"/>
</linearGradient>
<linearGradient id="paint82_linear_145_206" x1="80.6729" y1="133.193" x2="86.3374" y2="133.193" gradientUnits="userSpaceOnUse">
<stop stop-color="#3D065F"/>
<stop offset="1" stop-color="#5F27BD"/>
</linearGradient>
<linearGradient id="paint83_linear_145_206" x1="65.9683" y1="126.313" x2="77.1656" y2="126.313" gradientUnits="userSpaceOnUse">
<stop offset="0.04" stop-color="#9F19AB"/>
<stop offset="0.24" stop-color="#AE25B1"/>
<stop offset="0.65" stop-color="#D744BF"/>
<stop offset="1" stop-color="#FF63CE"/>
</linearGradient>
<linearGradient id="paint84_linear_145_206" x1="20.3555" y1="102.234" x2="38.2877" y2="102.234" gradientUnits="userSpaceOnUse">
<stop offset="0.04" stop-color="#FFA98C"/>
<stop offset="0.32" stop-color="#FFB892"/>
<stop offset="0.86" stop-color="#FEE1A3"/>
<stop offset="1" stop-color="#FEECA8"/>
</linearGradient>
<linearGradient id="paint85_linear_145_206" x1="28.4736" y1="80.4105" x2="55.8743" y2="80.4105" gradientUnits="userSpaceOnUse">
<stop offset="0.04" stop-color="#9F19AB"/>
<stop offset="0.24" stop-color="#AE25B1"/>
<stop offset="0.65" stop-color="#D744BF"/>
<stop offset="1" stop-color="#FF63CE"/>
</linearGradient>
<linearGradient id="paint86_linear_145_206" x1="61.4565" y1="153.157" x2="73.4114" y2="153.157" gradientUnits="userSpaceOnUse">
<stop stop-color="#3D065F"/>
<stop offset="1" stop-color="#5F27BD"/>
</linearGradient>
<linearGradient id="paint87_linear_145_206" x1="59.4146" y1="130.345" x2="72.769" y2="130.345" gradientUnits="userSpaceOnUse">
<stop stop-color="#3D065F"/>
<stop offset="1" stop-color="#5F27BD"/>
</linearGradient>
<linearGradient id="paint88_linear_145_206" x1="58.7393" y1="142.541" x2="65.5235" y2="142.541" gradientUnits="userSpaceOnUse">
<stop offset="0.04" stop-color="#9F19AB"/>
<stop offset="0.24" stop-color="#AE25B1"/>
<stop offset="0.65" stop-color="#D744BF"/>
<stop offset="1" stop-color="#FF63CE"/>
</linearGradient>
<linearGradient id="paint89_linear_145_206" x1="37.448" y1="139.217" x2="48.4807" y2="139.217" gradientUnits="userSpaceOnUse">
<stop offset="0.04" stop-color="#9F19AB"/>
<stop offset="0.24" stop-color="#AE25B1"/>
<stop offset="0.65" stop-color="#D744BF"/>
<stop offset="1" stop-color="#FF63CE"/>
</linearGradient>
<linearGradient id="paint90_linear_145_206" x1="69.064" y1="147.956" x2="73.7734" y2="147.956" gradientUnits="userSpaceOnUse">
<stop stop-color="#3D065F"/>
<stop offset="1" stop-color="#5F27BD"/>
</linearGradient>
<linearGradient id="paint91_linear_145_206" x1="64.9307" y1="138.591" x2="70.5458" y2="138.591" gradientUnits="userSpaceOnUse">
<stop offset="0.04" stop-color="#FFA98C"/>
<stop offset="0.32" stop-color="#FFB892"/>
<stop offset="0.86" stop-color="#FEE1A3"/>
<stop offset="1" stop-color="#FEECA8"/>
</linearGradient>
<linearGradient id="paint92_linear_145_206" x1="49.9626" y1="131.712" x2="61.3905" y2="131.712" gradientUnits="userSpaceOnUse">
<stop stop-color="#3D065F"/>
<stop offset="1" stop-color="#5F27BD"/>
</linearGradient>
<linearGradient id="paint93_linear_145_206" x1="40.8894" y1="134.559" x2="55.2484" y2="134.559" gradientUnits="userSpaceOnUse">
<stop stop-color="#3D065F"/>
<stop offset="1" stop-color="#5F27BD"/>
</linearGradient>
<linearGradient id="paint94_linear_145_206" x1="52.021" y1="146.014" x2="57.949" y2="146.014" gradientUnits="userSpaceOnUse">
<stop stop-color="#3D065F"/>
<stop offset="1" stop-color="#5F27BD"/>
</linearGradient>
<linearGradient id="paint95_linear_145_206" x1="85.251" y1="160.432" x2="100.565" y2="160.432" gradientUnits="userSpaceOnUse">
<stop stop-color="#3D065F"/>
<stop offset="1" stop-color="#5F27BD"/>
</linearGradient>
<linearGradient id="paint96_linear_145_206" x1="28.4736" y1="132.534" x2="33.9077" y2="132.534" gradientUnits="userSpaceOnUse">
<stop stop-color="#3D065F"/>
<stop offset="1" stop-color="#5F27BD"/>
</linearGradient>
<linearGradient id="paint97_linear_145_206" x1="88.791" y1="152.301" x2="94.4556" y2="152.301" gradientUnits="userSpaceOnUse">
<stop stop-color="#3D065F"/>
<stop offset="1" stop-color="#5F27BD"/>
</linearGradient>
<linearGradient id="paint98_linear_145_206" x1="74.0861" y1="145.421" x2="85.2999" y2="145.421" gradientUnits="userSpaceOnUse">
<stop stop-color="#3D065F"/>
<stop offset="1" stop-color="#5F27BD"/>
</linearGradient>
<linearGradient id="paint99_linear_145_206" x1="28.4736" y1="126.083" x2="37.3492" y2="126.083" gradientUnits="userSpaceOnUse">
<stop stop-color="#3D065F"/>
<stop offset="1" stop-color="#5F27BD"/>
</linearGradient>
<linearGradient id="paint100_linear_145_206" x1="77.314" y1="152.68" x2="81.76" y2="152.68" gradientUnits="userSpaceOnUse">
<stop stop-color="#3D065F"/>
<stop offset="1" stop-color="#5F27BD"/>
</linearGradient>
<linearGradient id="paint101_linear_145_206" x1="28.4736" y1="121.343" x2="46.4059" y2="121.343" gradientUnits="userSpaceOnUse">
<stop offset="0.04" stop-color="#9F19AB"/>
<stop offset="0.24" stop-color="#AE25B1"/>
<stop offset="0.65" stop-color="#D744BF"/>
<stop offset="1" stop-color="#FF63CE"/>
</linearGradient>
<linearGradient id="paint102_linear_145_206" x1="56.7963" y1="155.774" x2="62.4279" y2="155.774" gradientUnits="userSpaceOnUse">
<stop offset="0.04" stop-color="#9F19AB"/>
<stop offset="0.24" stop-color="#AE25B1"/>
<stop offset="0.65" stop-color="#D744BF"/>
<stop offset="1" stop-color="#FF63CE"/>
</linearGradient>
<linearGradient id="paint103_linear_145_206" x1="41.8281" y1="148.894" x2="53.256" y2="148.894" gradientUnits="userSpaceOnUse">
<stop stop-color="#3D065F"/>
<stop offset="1" stop-color="#5F27BD"/>
</linearGradient>
<linearGradient id="paint104_linear_145_206" x1="80.6729" y1="169.484" x2="86.3374" y2="169.484" gradientUnits="userSpaceOnUse">
<stop stop-color="#3D065F"/>
<stop offset="1" stop-color="#5F27BD"/>
</linearGradient>
<linearGradient id="paint105_linear_145_206" x1="65.9683" y1="162.604" x2="77.1656" y2="162.604" gradientUnits="userSpaceOnUse">
<stop offset="0.04" stop-color="#9F19AB"/>
<stop offset="0.24" stop-color="#AE25B1"/>
<stop offset="0.65" stop-color="#D744BF"/>
<stop offset="1" stop-color="#FF63CE"/>
</linearGradient>
<linearGradient id="paint106_linear_145_206" x1="28.0454" y1="140.698" x2="38.2877" y2="140.698" gradientUnits="userSpaceOnUse">
<stop stop-color="#3D065F"/>
<stop offset="1" stop-color="#5F27BD"/>
</linearGradient>
<linearGradient id="paint107_linear_145_206" x1="28.4736" y1="116.701" x2="55.8743" y2="116.701" gradientUnits="userSpaceOnUse">
<stop stop-color="#3D065F"/>
<stop offset="1" stop-color="#5F27BD"/>
</linearGradient>
</defs>
</svg>
