<svg xmlns="http://www.w3.org/2000/svg" viewBox="0 0 32 31.88"><defs><style>.cls-1,.cls-2,.cls-3{fill:none;stroke:#530ceb;stroke-width:2px;}.cls-1,.cls-3{stroke-miterlimit:10;}.cls-2,.cls-3{stroke-linecap:round;}.cls-2{stroke-linejoin:round;}</style></defs><g id="Warstwa_2" data-name="Warstwa 2"><g id="Layer_1" data-name="Layer 1"><circle class="cls-1" cx="20.44" cy="20" r="7.47"/><line class="cls-2" x1="25.59" y1="25.47" x2="31" y2="30.88"/><path class="cls-2" d="M14.43,27.62a13.31,13.31,0,1,1,13.3-13.31"/><line class="cls-3" x1="14.43" y1="1" x2="14.43" y2="12.28"/><path class="cls-2" d="M11.33,21.07A27,27,0,0,0,4,22.5"/><path class="cls-1" d="M4,6.12A31.39,31.39,0,0,0,14.43,7.65,31.37,31.37,0,0,0,24.9,6.12"/><path class="cls-2" d="M22.09,10.58c-1-5.53-4-9.58-7.66-9.58-4.41,0-8,6-8,13.31s3.58,13.31,8,13.31"/><line class="cls-2" x1="12.64" y1="14.31" x2="1" y2="14.31"/></g></g></svg>