<svg xmlns="http://www.w3.org/2000/svg" viewBox="0 0 30 30"><defs><style>.cls-1{fill:#530ceb;}</style></defs><g id="Warstwa_2" data-name="Warstwa 2"><g id="Layer_1" data-name="Layer 1"><path class="cls-1" d="M15,30A15,15,0,1,0,0,15,15,15,0,0,0,15,30ZM3.39,21l6.09-.05a21.78,21.78,0,0,0,3.37,6.94A13.07,13.07,0,0,1,3.39,21ZM11,10.89h7.6a20.39,20.39,0,0,1,.05,8.05L11,19A20.09,20.09,0,0,1,11,10.89Zm3.8,16.42a19.36,19.36,0,0,1-3.31-6.38l6.65-.05A20.48,20.48,0,0,1,14.83,27.31Zm1.94.63a21.41,21.41,0,0,0,3.41-7.09l6.51,0A13.11,13.11,0,0,1,16.77,27.94ZM28.06,15a13.27,13.27,0,0,1-.58,3.87l-6.84.05a21.9,21.9,0,0,0-.05-8h6.8A13,13,0,0,1,28.06,15ZM26.56,9H20.13a22.37,22.37,0,0,0-3.36-6.89A13,13,0,0,1,26.56,9ZM18.12,9H11.54a19.93,19.93,0,0,1,3.29-6.26A19.93,19.93,0,0,1,18.12,9ZM12.85,2.13A21.38,21.38,0,0,0,9.53,9H3.44A13,13,0,0,1,12.85,2.13ZM9.07,10.89a22.06,22.06,0,0,0,0,8.1L2.59,19a12.39,12.39,0,0,1-.65-4,13,13,0,0,1,.67-4.11Z"/></g></g></svg>