<svg width="1201" height="1062" viewBox="0 0 1201 1062" fill="none" xmlns="http://www.w3.org/2000/svg">
<g clip-path="url(#clip0_431_5)">
<g filter="url(#filter0_ddd_431_5)">
<rect x="-187" y="139" width="1280" height="784" rx="10" fill="white"/>
<rect x="-187" y="192" width="1280" height="731" fill="white"/>
<g filter="url(#filter1_di_431_5)">
<path d="M-187 149C-187 143.477 -182.523 139 -177 139H1083C1088.52 139 1093 143.477 1093 149V192H-187V149Z" fill="white"/>
<path d="M941.5 173.474C946.132 173.474 949.967 169.63 949.967 165.007C949.967 160.375 946.124 156.54 941.492 156.54C936.868 156.54 933.033 160.375 933.033 165.007C933.033 169.63 936.876 173.474 941.5 173.474ZM941.5 172.062C937.582 172.062 934.453 168.925 934.453 165.007C934.453 161.089 937.574 157.951 941.492 157.951C945.41 157.951 948.547 161.089 948.556 165.007C948.564 168.925 945.418 172.062 941.5 172.062ZM941.5 160.782C941.143 160.782 940.877 161.039 940.877 161.404V165.555L940.944 167.306L940.114 166.31L939.126 165.314C939.01 165.206 938.86 165.131 938.686 165.131C938.346 165.131 938.088 165.397 938.088 165.729C938.088 165.903 938.138 166.053 938.246 166.161L941.019 168.925C941.185 169.091 941.326 169.157 941.5 169.157C941.683 169.157 941.832 169.083 941.99 168.925L944.754 166.161C944.862 166.053 944.928 165.903 944.928 165.729C944.928 165.397 944.663 165.131 944.322 165.131C944.14 165.131 943.99 165.198 943.882 165.314L942.903 166.31L942.056 167.314L942.123 165.555V161.404C942.123 161.039 941.865 160.782 941.5 160.782Z" fill="#737373"/>
<path d="M982.5 167.265C982.857 167.265 983.156 166.966 983.156 166.617V158.092L983.106 156.847L983.67 157.437L984.924 158.781C985.04 158.914 985.214 158.98 985.372 158.98C985.721 158.98 985.978 158.731 985.978 158.391C985.978 158.217 985.912 158.084 985.787 157.959L982.981 155.253C982.815 155.087 982.666 155.029 982.5 155.029C982.334 155.029 982.185 155.087 982.019 155.253L979.213 157.959C979.088 158.084 979.014 158.217 979.014 158.391C979.014 158.731 979.271 158.98 979.611 158.98C979.777 158.98 979.952 158.914 980.068 158.781L981.33 157.437L981.894 156.847L981.836 158.092V166.617C981.836 166.966 982.143 167.265 982.5 167.265ZM977.735 173.764H987.256C988.991 173.764 989.863 172.901 989.863 171.191V162.907C989.863 161.197 988.991 160.333 987.256 160.333H984.94V161.67H987.231C988.053 161.67 988.526 162.118 988.526 162.981V171.116C988.526 171.979 988.053 172.428 987.231 172.428H977.752C976.922 172.428 976.465 171.979 976.465 171.116V162.981C976.465 162.118 976.922 161.67 977.752 161.67H980.051V160.333H977.735C976 160.333 975.129 161.197 975.129 162.907V171.191C975.129 172.901 976 173.764 977.735 173.764Z" fill="#737373"/>
<path d="M1023.5 172.004C1023.91 172.004 1024.25 171.681 1024.25 171.282V165.762H1029.61C1030.01 165.762 1030.35 165.422 1030.35 165.015C1030.35 164.608 1030.01 164.276 1029.61 164.276H1024.25V158.748C1024.25 158.35 1023.91 158.026 1023.5 158.026C1023.09 158.026 1022.76 158.35 1022.76 158.748V164.276H1017.39C1016.99 164.276 1016.65 164.608 1016.65 165.015C1016.65 165.422 1016.99 165.762 1017.39 165.762H1022.76V171.282C1022.76 171.681 1023.09 172.004 1023.5 172.004Z" fill="#737373"/>
<path d="M1058.32 169.871H1059.74V171.141C1059.74 172.851 1060.61 173.714 1062.35 173.714H1070.68C1072.41 173.714 1073.28 172.851 1073.28 171.141V162.741C1073.28 161.031 1072.41 160.167 1070.68 160.167H1069.26V158.897C1069.26 157.188 1068.38 156.324 1066.66 156.324H1058.32C1056.58 156.324 1055.72 157.188 1055.72 158.897V167.298C1055.72 169.008 1056.58 169.871 1058.32 169.871ZM1058.34 168.535C1057.51 168.535 1057.05 168.086 1057.05 167.223V158.972C1057.05 158.109 1057.51 157.661 1058.34 157.661H1066.63C1067.46 157.661 1067.92 158.109 1067.92 158.972V160.167H1062.35C1060.61 160.167 1059.74 161.022 1059.74 162.741V168.535H1058.34ZM1062.37 172.378C1061.54 172.378 1061.08 171.93 1061.08 171.066V162.815C1061.08 161.952 1061.54 161.504 1062.37 161.504H1070.66C1071.48 161.504 1071.95 161.952 1071.95 162.815V171.066C1071.95 171.93 1071.48 172.378 1070.66 172.378H1062.37Z" fill="#737373"/>
<path d="M-6.80371 172.22C-6.58789 172.22 -6.40527 172.137 -6.26416 171.996L0.318359 165.563C0.476074 165.405 0.559082 165.214 0.559082 165.007C0.559082 164.791 0.476074 164.592 0.318359 164.451L-6.25586 158.026C-6.40527 157.876 -6.58789 157.793 -6.80371 157.793C-7.23535 157.793 -7.55908 158.125 -7.55908 158.557C-7.55908 158.756 -7.47607 158.956 -7.34326 159.097L-1.30029 165.007L-7.34326 170.917C-7.47607 171.058 -7.55908 171.249 -7.55908 171.457C-7.55908 171.888 -7.23535 172.22 -6.80371 172.22Z" fill="#BFBFBF"/>
<path d="M169.5 173.615C169.633 173.615 169.849 173.565 170.056 173.449C174.779 170.801 176.398 169.68 176.398 166.65V160.3C176.398 159.429 176.024 159.155 175.319 158.856C174.339 158.449 171.177 157.312 170.197 156.972C169.973 156.897 169.732 156.847 169.5 156.847C169.268 156.847 169.027 156.914 168.811 156.972C167.832 157.254 164.661 158.458 163.681 158.856C162.984 159.146 162.602 159.429 162.602 160.3V166.65C162.602 169.68 164.229 170.792 168.944 173.449C169.16 173.565 169.367 173.615 169.5 173.615ZM169.832 158.258C171.085 158.756 173.518 159.636 174.804 160.076C175.028 160.159 175.078 160.275 175.078 160.558V166.343C175.078 168.908 173.85 169.581 170.015 171.913C169.774 172.062 169.641 172.104 169.508 172.112V158.184C169.591 158.184 169.699 158.208 169.832 158.258Z" fill="#737373"/>
<rect x="195" y="151" width="516" height="28" rx="6" fill="black" fill-opacity="0.05"/>
<g clip-path="url(#clip1_431_5)">
<path d="M411.711 170.716H417.289C418.045 170.716 418.414 170.341 418.414 169.521V165.22C418.414 164.481 418.109 164.101 417.482 164.036V162.56C417.482 160.351 416.035 159.284 414.5 159.284C412.965 159.284 411.518 160.351 411.518 162.56V164.065C410.943 164.153 410.586 164.528 410.586 165.22V169.521C410.586 170.341 410.955 170.716 411.711 170.716ZM412.461 162.437C412.461 160.966 413.404 160.187 414.5 160.187C415.596 160.187 416.539 160.966 416.539 162.437V164.03L412.461 164.036V162.437Z" fill="#9E9E9E"/>
<path d="M424.908 166.867C424.908 168.843 426.117 170.156 427.898 170.156C429.328 170.156 430.446 169.311 430.745 168.024H429.835C429.588 168.83 428.834 169.35 427.898 169.35C426.624 169.35 425.792 168.349 425.792 166.854C425.792 165.307 426.689 164.332 427.963 164.332C428.834 164.332 429.588 164.813 429.822 165.684H430.719C430.472 164.384 429.406 163.539 427.95 163.539C426.117 163.539 424.908 164.891 424.908 166.867ZM431.61 166.854C431.61 168.765 432.962 170.156 434.808 170.156C436.654 170.156 438.006 168.765 438.006 166.854C438.006 164.93 436.654 163.539 434.808 163.539C432.962 163.539 431.61 164.93 431.61 166.854ZM432.52 166.841C432.52 165.385 433.456 164.345 434.808 164.345C436.147 164.345 437.096 165.385 437.096 166.841C437.096 168.323 436.147 169.35 434.808 169.35C433.456 169.35 432.52 168.323 432.52 166.841ZM441.859 170.156C442.912 170.156 443.796 169.688 444.238 168.713L444.329 170H445.109V160.523H444.212V164.904C443.77 163.994 442.938 163.539 441.898 163.539C440.026 163.539 438.947 164.969 438.947 166.867C438.947 168.752 440.026 170.156 441.859 170.156ZM442.015 169.337C440.65 169.337 439.857 168.297 439.857 166.841C439.857 165.398 440.65 164.345 442.015 164.345C443.393 164.345 444.199 165.398 444.199 166.841C444.199 168.297 443.393 169.337 442.015 169.337ZM449.567 170.156C451.049 170.156 452.024 169.441 452.362 168.115H451.504C451.27 168.947 450.607 169.389 449.58 169.389C448.228 169.389 447.422 168.505 447.357 166.971H452.362V166.529C452.362 164.748 451.205 163.539 449.502 163.539C447.708 163.539 446.486 164.891 446.486 166.854C446.486 168.83 447.721 170.156 449.567 170.156ZM449.502 164.306C450.685 164.306 451.465 165.112 451.465 166.321H447.383C447.539 165.086 448.319 164.306 449.502 164.306ZM453.303 166.867C453.303 168.843 454.512 170.156 456.293 170.156C457.723 170.156 458.841 169.311 459.14 168.024H458.23C457.983 168.83 457.229 169.35 456.293 169.35C455.019 169.35 454.187 168.349 454.187 166.854C454.187 165.307 455.084 164.332 456.358 164.332C457.229 164.332 457.983 164.813 458.217 165.684H459.114C458.867 164.384 457.801 163.539 456.345 163.539C454.512 163.539 453.303 164.891 453.303 166.867ZM461.89 170V164.462H463.151V163.708H461.89V161.719H461.006V163.708H459.745V164.462H461.006V170H461.89ZM466.842 170.156C468.324 170.156 469.299 169.441 469.637 168.115H468.779C468.545 168.947 467.882 169.389 466.855 169.389C465.503 169.389 464.697 168.505 464.632 166.971H469.637V166.529C469.637 164.748 468.48 163.539 466.777 163.539C464.983 163.539 463.761 164.891 463.761 166.854C463.761 168.83 464.996 170.156 466.842 170.156ZM466.777 164.306C467.96 164.306 468.74 165.112 468.74 166.321H464.658C464.814 165.086 465.594 164.306 466.777 164.306ZM473.489 170.156C474.542 170.156 475.426 169.688 475.868 168.713L475.959 170H476.739V160.523H475.842V164.904C475.4 163.994 474.568 163.539 473.528 163.539C471.656 163.539 470.577 164.969 470.577 166.867C470.577 168.752 471.656 170.156 473.489 170.156ZM473.645 169.337C472.28 169.337 471.487 168.297 471.487 166.841C471.487 165.398 472.28 164.345 473.645 164.345C475.023 164.345 475.829 165.398 475.829 166.841C475.829 168.297 475.023 169.337 473.645 169.337ZM479.326 170.143C479.768 170.143 480.145 169.779 480.145 169.35C480.145 168.908 479.768 168.531 479.326 168.531C478.884 168.531 478.507 168.908 478.507 169.35C478.507 169.779 478.884 170.143 479.326 170.143ZM484.155 170.156C485.637 170.156 486.612 169.441 486.95 168.115H486.092C485.858 168.947 485.195 169.389 484.168 169.389C482.816 169.389 482.01 168.505 481.945 166.971H486.95V166.529C486.95 164.748 485.793 163.539 484.09 163.539C482.296 163.539 481.074 164.891 481.074 166.854C481.074 168.83 482.309 170.156 484.155 170.156ZM484.09 164.306C485.273 164.306 486.053 165.112 486.053 166.321H481.971C482.127 165.086 482.907 164.306 484.09 164.306ZM492.752 163.708V167.049C492.752 168.544 492.037 169.35 490.828 169.35C489.827 169.35 489.164 168.817 489.164 167.322V163.695H488.254V167.608C488.254 169.142 489.06 170.156 490.542 170.156C491.53 170.156 492.401 169.662 492.752 168.934L492.869 170H493.649V163.708H492.752Z" fill="#4C4C4C"/>
</g>
<path d="M699.283 164.615C699.43 164.615 699.541 164.568 699.623 164.48L702.037 162.055C702.143 161.955 702.184 161.838 702.184 161.703C702.184 161.574 702.131 161.445 702.037 161.352L699.623 158.902C699.541 158.809 699.424 158.762 699.283 158.762C699.02 158.762 698.82 158.973 698.82 159.242C698.82 159.365 698.867 159.482 698.949 159.576L700.514 161.111C700.18 161.053 699.84 161.018 699.5 161.018C696.629 161.018 694.32 163.32 694.32 166.191C694.32 169.068 696.629 171.377 699.5 171.377C702.371 171.377 704.674 169.068 704.674 166.191C704.674 165.91 704.475 165.705 704.188 165.705C703.912 165.705 703.73 165.91 703.73 166.191C703.73 168.547 701.85 170.434 699.5 170.434C697.15 170.434 695.264 168.547 695.264 166.191C695.264 163.842 697.15 161.961 699.5 161.961C699.945 161.961 700.355 161.996 700.707 162.072L698.955 163.812C698.867 163.906 698.82 164.023 698.82 164.146C698.82 164.416 699.02 164.615 699.283 164.615Z" fill="#797979"/>
</g>
<g filter="url(#filter2_d_431_5)">
<rect x="503.942" y="261.332" width="216.058" height="201.246" rx="20" fill="white"/>
</g>
<path d="M611.971 304.869C605.828 304.869 599.792 306.487 594.472 309.558C589.151 312.63 584.733 317.049 581.661 322.369C578.589 327.69 576.972 333.726 576.972 339.869C576.972 346.013 578.589 352.048 581.661 357.369C582.125 358.177 582.891 358.767 583.791 359.01C584.69 359.252 585.649 359.128 586.456 358.664C587.264 358.2 587.854 357.434 588.097 356.535C588.34 355.635 588.215 354.677 587.751 353.869C585.271 349.62 583.967 344.788 583.971 339.869C583.973 335.575 584.962 331.339 586.862 327.489C588.763 323.638 591.523 320.276 594.93 317.663C598.337 315.05 602.299 313.255 606.511 312.418C610.722 311.58 615.07 311.723 619.217 312.834C623.365 313.945 627.201 315.995 630.43 318.826C633.659 321.657 636.193 325.192 637.837 329.159C639.481 333.125 640.191 337.417 639.912 341.702C639.633 345.986 638.372 350.149 636.226 353.869C635.995 354.268 635.845 354.71 635.785 355.168C635.724 355.625 635.755 356.09 635.876 356.536C635.996 356.982 636.204 357.399 636.486 357.764C636.768 358.13 637.12 358.435 637.521 358.664C638.325 359.12 639.276 359.24 640.168 358.998C641.06 358.755 641.82 358.17 642.281 357.369C645.353 352.048 646.97 346.013 646.97 339.869C646.97 333.726 645.353 327.69 642.281 322.369C639.21 317.049 634.792 312.63 629.471 309.558C624.15 306.487 618.115 304.869 611.971 304.869ZM621.911 325.029L616.486 330.419C615.082 329.727 613.537 329.367 611.971 329.369C609.895 329.369 607.865 329.985 606.138 331.139C604.411 332.292 603.065 333.932 602.271 335.851C601.476 337.769 601.268 339.881 601.673 341.917C602.078 343.954 603.078 345.825 604.547 347.294C606.015 348.762 607.886 349.762 609.923 350.167C611.96 350.572 614.071 350.364 615.989 349.57C617.908 348.775 619.548 347.429 620.702 345.703C621.855 343.976 622.471 341.946 622.471 339.869C622.469 338.315 622.11 336.782 621.421 335.389L626.846 329.999C627.174 329.674 627.435 329.287 627.612 328.86C627.79 328.434 627.882 327.976 627.882 327.514C627.882 327.052 627.79 326.595 627.612 326.168C627.435 325.741 627.174 325.354 626.846 325.029C626.191 324.377 625.303 324.011 624.379 324.011C623.454 324.011 622.567 324.377 621.911 325.029ZM611.971 343.369C611.043 343.369 610.153 343 609.496 342.344C608.84 341.688 608.471 340.797 608.471 339.869C608.471 338.941 608.84 338.051 609.496 337.394C610.153 336.738 611.043 336.369 611.971 336.369C612.885 336.364 613.764 336.715 614.421 337.349C614.756 337.677 615.022 338.07 615.202 338.502C615.382 338.935 615.474 339.4 615.471 339.869C615.471 340.797 615.103 341.688 614.446 342.344C613.79 343 612.9 343.369 611.971 343.369Z" fill="#530CEB"/>
<path d="M534.731 413.189C537.591 413.189 539.571 411.469 539.571 408.869C539.571 406.889 538.591 405.829 535.611 404.689C533.511 403.869 532.831 403.349 532.831 402.429C532.831 401.569 533.591 400.909 534.591 400.909C535.531 400.909 536.351 401.469 536.831 402.509L538.911 401.229C538.031 399.549 536.551 398.689 534.671 398.689C532.071 398.689 530.331 400.229 530.331 402.489C530.331 404.509 531.371 405.569 534.291 406.709C536.351 407.529 537.071 408.129 537.071 409.089C537.071 410.269 536.171 410.969 534.771 410.969C533.151 410.969 532.051 410.029 531.871 408.369L529.391 408.989C529.791 411.529 531.951 413.189 534.731 413.189ZM543.704 410.909L548.464 404.789V403.069H540.784V405.089H545.524L540.544 411.329V412.929H548.484V410.909H543.704ZM551.124 417.009H553.724L559.324 403.069H556.684L554.164 409.909L551.664 403.069H549.024L552.884 412.669L551.124 417.009ZM565.801 402.869C564.681 402.869 563.581 403.329 562.961 404.069V398.989H560.561V412.929H562.961V411.949C563.641 412.789 564.741 413.129 565.801 413.129C568.481 413.129 569.961 410.949 569.961 407.989C569.961 404.769 568.221 402.869 565.801 402.869ZM565.221 410.909C563.481 410.909 562.741 409.649 562.741 408.009C562.741 406.369 563.481 405.049 565.201 405.049C566.801 405.049 567.561 406.169 567.561 408.009C567.561 409.829 566.821 410.909 565.221 410.909ZM571.946 412.929H574.346V410.049L575.866 408.369L578.746 412.929H581.606L577.506 406.889L581.186 403.069H577.966L574.346 407.069V398.989H571.946V412.929ZM586.414 413.129C589.454 413.129 591.354 410.769 591.354 407.989C591.354 405.189 589.454 402.869 586.414 402.869C583.354 402.869 581.474 405.189 581.474 407.989C581.474 410.769 583.354 413.129 586.414 413.129ZM586.414 411.029C584.594 411.029 583.874 409.589 583.874 407.989C583.874 406.369 584.594 404.969 586.414 404.969C588.234 404.969 588.954 406.369 588.954 407.989C588.954 409.589 588.234 411.029 586.414 411.029ZM595.472 401.829H597.232L600.272 398.989H597.692L595.472 401.829ZM596.292 413.129C598.152 413.129 600.132 412.129 600.132 409.829C600.132 406.229 594.972 407.109 594.972 405.609C594.972 405.149 595.452 404.769 596.232 404.769C597.312 404.769 597.852 405.409 598.192 406.029L600.052 405.009C599.312 403.669 598.012 402.869 596.312 402.869C594.412 402.869 592.692 403.849 592.692 405.749C592.692 409.409 597.772 408.309 597.772 409.969C597.772 410.489 597.292 411.129 596.172 411.129C594.852 411.129 594.332 410.229 594.072 409.509L592.152 410.369C592.632 411.869 594.212 413.129 596.292 413.129ZM604.698 401.829H606.458L609.498 398.989H606.918L604.698 401.829ZM605.958 413.129C607.918 413.129 609.438 412.049 610.098 410.209L607.918 409.369C607.658 410.389 606.898 411.029 605.938 411.029C604.258 411.029 603.638 409.589 603.638 408.029C603.638 406.469 604.278 404.969 605.938 404.969C606.918 404.969 607.658 405.629 607.918 406.669L610.198 405.769C609.438 403.809 607.898 402.869 605.938 402.869C602.718 402.869 601.178 405.429 601.178 408.029C601.178 410.629 602.738 413.129 605.958 413.129ZM622.864 398.989V404.069C622.244 403.329 621.144 402.869 620.024 402.869C617.604 402.869 615.864 404.769 615.864 407.989C615.864 410.949 617.344 413.129 620.024 413.129C621.084 413.129 622.184 412.789 622.864 411.949V412.929H625.264V398.989H622.864ZM620.604 410.909C619.004 410.909 618.264 409.829 618.264 408.009C618.264 406.169 619.024 405.049 620.624 405.049C622.344 405.049 623.084 406.369 623.084 408.009C623.084 409.649 622.344 410.909 620.604 410.909ZM630.309 410.909L635.069 404.789V403.069H627.389V405.089H632.129L627.149 411.329V412.929H635.089V410.909H630.309ZM637.009 401.209H639.529V398.989H637.009V401.209ZM637.069 412.929H639.469V403.069H637.069V412.929ZM646.005 402.869C644.205 402.869 642.745 403.569 641.565 404.989L643.305 406.449C644.025 405.489 644.965 404.969 645.965 404.969C647.105 404.969 647.825 405.629 647.825 406.709V406.989H645.365C644.245 406.989 643.405 407.129 642.745 407.429C641.785 407.869 641.265 408.749 641.265 409.909C641.265 411.789 642.745 413.129 644.825 413.129C646.125 413.129 647.245 412.569 647.825 411.649L648.025 412.929H650.225V406.709C650.225 404.329 648.605 402.869 646.005 402.869ZM645.205 411.089C644.245 411.089 643.665 410.649 643.665 409.949C643.665 409.589 643.805 409.309 644.065 409.129C644.385 408.889 644.865 408.789 645.685 408.789H647.825C647.825 410.069 646.645 411.089 645.205 411.089ZM655.671 411.029C655.231 411.029 654.971 410.849 654.971 410.409V406.189L656.111 405.289V402.849L654.971 403.749V398.989H652.571V405.649L651.471 406.509V408.989L652.571 408.109V410.569C652.571 412.329 653.551 413.129 654.891 413.129C655.351 413.129 655.891 413.029 656.431 412.829V410.909C656.151 410.989 655.891 411.029 655.671 411.029ZM662.173 402.869C660.373 402.869 658.913 403.569 657.733 404.989L659.473 406.449C660.193 405.489 661.133 404.969 662.133 404.969C663.273 404.969 663.993 405.629 663.993 406.709V406.989H661.533C660.413 406.989 659.573 407.129 658.913 407.429C657.953 407.869 657.433 408.749 657.433 409.909C657.433 411.789 658.913 413.129 660.993 413.129C662.293 413.129 663.413 412.569 663.993 411.649L664.193 412.929H666.393V406.709C666.393 404.329 664.773 402.869 662.173 402.869ZM661.373 411.089C660.413 411.089 659.833 410.649 659.833 409.949C659.833 409.589 659.973 409.309 660.233 409.129C660.553 408.889 661.033 408.789 661.853 408.789H663.993C663.993 410.069 662.813 411.089 661.373 411.089ZM674.219 402.869C673.019 402.869 671.939 403.269 671.239 404.209V403.069H668.839V412.929H671.239V408.989C671.239 407.229 671.239 404.969 673.479 404.969C675.299 404.969 675.299 406.489 675.299 407.169V412.929H677.699V406.569C677.699 404.229 676.439 402.869 674.219 402.869ZM680.144 401.209H682.664V398.989H680.144V401.209ZM680.204 412.929H682.604V403.069H680.204V412.929ZM689.14 402.869C687.34 402.869 685.88 403.569 684.7 404.989L686.44 406.449C687.16 405.489 688.1 404.969 689.1 404.969C690.24 404.969 690.96 405.629 690.96 406.709V406.989H688.5C687.38 406.989 686.54 407.129 685.88 407.429C684.92 407.869 684.4 408.749 684.4 409.909C684.4 411.789 685.88 413.129 687.96 413.129C689.26 413.129 690.38 412.569 690.96 411.649L691.16 412.929H693.36V406.709C693.36 404.329 691.74 402.869 689.14 402.869ZM688.34 411.089C687.38 411.089 686.8 410.649 686.8 409.949C686.8 409.589 686.94 409.309 687.2 409.129C687.52 408.889 688 408.789 688.82 408.789H690.96C690.96 410.069 689.78 411.089 688.34 411.089Z" fill="black"/>
<g filter="url(#filter3_d_431_5)">
<rect x="749.942" y="380.328" width="216.058" height="201.246" rx="20" fill="white"/>
</g>
<path d="M879.284 481.718H838.549C837.866 481.718 837.21 481.443 836.726 480.954C836.243 480.465 835.971 479.802 835.971 479.11V440.635C835.971 439.944 836.243 439.281 836.726 438.792C837.21 438.303 837.866 438.028 838.549 438.028H879.284C879.967 438.028 880.623 438.303 881.107 438.792C881.59 439.281 881.862 439.944 881.862 440.635V479.11C881.862 479.802 881.59 480.465 881.107 480.954C880.623 481.443 879.967 481.718 879.284 481.718ZM841.127 476.503H876.706V443.243H841.127V476.503Z" fill="#530CEB"/>
<path d="M874.413 443.243H843.432C842.748 443.243 842.093 442.968 841.609 442.479C841.126 441.99 840.854 441.327 840.854 440.635V430.112C840.9 425.296 842.825 420.694 846.208 417.305C849.591 413.916 854.161 412.016 858.922 412.016C863.684 412.016 868.253 413.916 871.637 417.305C875.02 420.694 876.944 425.296 876.991 430.112V440.635C876.991 441.327 876.719 441.99 876.236 442.479C875.752 442.968 875.096 443.243 874.413 443.243V443.243ZM846.01 438.028H871.834V430.112C871.795 426.675 870.418 423.391 868 420.975C865.583 418.558 862.321 417.203 858.922 417.203C855.523 417.203 852.262 418.558 849.844 420.975C847.427 423.391 846.049 426.675 846.01 430.112V438.028Z" fill="#530CEB"/>
<path d="M858.923 464.799C857.343 464.799 855.797 464.325 854.483 463.437C853.169 462.549 852.144 461.286 851.54 459.809C850.935 458.332 850.776 456.707 851.085 455.139C851.393 453.571 852.154 452.131 853.272 451.001C854.39 449.87 855.814 449.1 857.364 448.788C858.914 448.477 860.521 448.637 861.982 449.248C863.442 449.86 864.69 450.896 865.569 452.226C866.447 453.555 866.916 455.118 866.916 456.716C866.913 458.859 866.07 460.914 864.572 462.429C863.074 463.945 861.042 464.797 858.923 464.799ZM858.923 453.848C858.362 453.848 857.814 454.016 857.348 454.331C856.881 454.647 856.518 455.095 856.303 455.619C856.089 456.143 856.032 456.719 856.142 457.276C856.251 457.832 856.521 458.343 856.918 458.744C857.315 459.145 857.82 459.419 858.37 459.529C858.92 459.64 859.49 459.583 860.009 459.366C860.527 459.149 860.97 458.781 861.281 458.31C861.593 457.838 861.759 457.283 861.759 456.716C861.758 455.956 861.459 455.227 860.928 454.689C860.396 454.151 859.675 453.849 858.923 453.848V453.848Z" fill="#530CEB"/>
<path d="M858.923 471.114C858.24 471.114 857.584 470.84 857.1 470.351C856.617 469.862 856.345 469.198 856.345 468.507V462.192C856.345 461.5 856.617 460.837 857.1 460.348C857.584 459.859 858.24 459.584 858.923 459.584C859.607 459.584 860.263 459.859 860.746 460.348C861.23 460.837 861.501 461.5 861.501 462.192V468.507C861.501 469.198 861.23 469.862 860.746 470.351C860.263 470.84 859.607 471.114 858.923 471.114Z" fill="#530CEB"/>
<path d="M804.881 517.984V527.584L799.021 517.984H796.441V531.924H798.941V522.284L804.781 531.924H807.381V517.984H804.881ZM810.394 520.204H812.914V517.984H810.394V520.204ZM810.454 531.924H812.854V522.064H810.454V531.924ZM823.969 526.864C823.969 524.124 822.489 521.864 819.429 521.864C816.149 521.864 814.749 524.464 814.749 527.044C814.749 529.684 816.189 532.124 819.589 532.124C821.249 532.124 822.549 531.544 823.629 530.344L821.969 528.884C821.289 529.664 820.489 529.944 819.609 529.944C818.049 529.944 817.249 529.084 817.149 527.784H823.909C823.949 527.464 823.969 527.164 823.969 526.864ZM817.129 525.884C817.269 524.904 817.949 523.864 819.409 523.864C820.669 523.864 821.629 524.624 821.669 525.884H817.129ZM828.16 529.904L832.92 523.784V522.064H825.24V524.084H829.98L825 530.324V531.924H832.94V529.904H828.16ZM838.858 521.864C837.058 521.864 835.598 522.564 834.418 523.984L836.158 525.444C836.878 524.484 837.818 523.964 838.818 523.964C839.958 523.964 840.678 524.624 840.678 525.704V525.984H838.218C837.098 525.984 836.258 526.124 835.598 526.424C834.638 526.864 834.118 527.744 834.118 528.904C834.118 530.784 835.598 532.124 837.678 532.124C838.978 532.124 840.098 531.564 840.678 530.644L840.878 531.924H843.078V525.704C843.078 523.324 841.458 521.864 838.858 521.864ZM838.058 530.084C837.098 530.084 836.518 529.644 836.518 528.944C836.518 528.584 836.658 528.304 836.918 528.124C837.238 527.884 837.718 527.784 838.538 527.784H840.678C840.678 529.064 839.498 530.084 838.058 530.084ZM847.127 531.924H849.287L851.227 525.464L853.167 531.924H855.327L858.367 522.064H855.807L854.107 528.224L852.247 522.064H850.187L848.327 528.244L846.647 522.064H844.087L847.127 531.924ZM863.567 532.124C866.607 532.124 868.507 529.764 868.507 526.984C868.507 524.184 866.607 521.864 863.567 521.864C860.507 521.864 858.627 524.184 858.627 526.984C858.627 529.764 860.507 532.124 863.567 532.124ZM863.567 530.024C861.747 530.024 861.027 528.584 861.027 526.984C861.027 525.364 861.747 523.964 863.567 523.964C865.387 523.964 866.107 525.364 866.107 526.984C866.107 528.584 865.387 530.024 863.567 530.024ZM876.585 517.984V523.064C875.965 522.324 874.865 521.864 873.745 521.864C871.325 521.864 869.585 523.764 869.585 526.984C869.585 529.944 871.065 532.124 873.745 532.124C874.805 532.124 875.905 531.784 876.585 530.944V531.924H878.985V517.984H876.585ZM874.325 529.904C872.725 529.904 871.985 528.824 871.985 527.004C871.985 525.164 872.745 524.044 874.345 524.044C876.065 524.044 876.805 525.364 876.805 527.004C876.805 528.644 876.065 529.904 874.325 529.904ZM887.11 521.864C885.91 521.864 884.83 522.264 884.13 523.204V522.064H881.73V531.924H884.13V527.984C884.13 526.224 884.13 523.964 886.37 523.964C888.19 523.964 888.19 525.484 888.19 526.164V531.924H890.59V525.564C890.59 523.224 889.33 521.864 887.11 521.864ZM897.155 532.124C900.195 532.124 902.095 529.764 902.095 526.984C902.095 524.184 900.195 521.864 897.155 521.864C894.095 521.864 892.215 524.184 892.215 526.984C892.215 529.764 894.095 532.124 897.155 532.124ZM897.155 530.024C895.335 530.024 894.615 528.584 894.615 526.984C894.615 525.364 895.335 523.964 897.155 523.964C898.975 523.964 899.695 525.364 899.695 526.984C899.695 528.584 898.975 530.024 897.155 530.024ZM906.213 520.824H907.973L911.013 517.984H908.433L906.213 520.824ZM907.033 532.124C908.893 532.124 910.873 531.124 910.873 528.824C910.873 525.224 905.713 526.104 905.713 524.604C905.713 524.144 906.193 523.764 906.973 523.764C908.053 523.764 908.593 524.404 908.933 525.024L910.793 524.004C910.053 522.664 908.753 521.864 907.053 521.864C905.153 521.864 903.433 522.844 903.433 524.744C903.433 528.404 908.513 527.304 908.513 528.964C908.513 529.484 908.033 530.124 906.913 530.124C905.593 530.124 905.073 529.224 904.813 528.504L902.893 529.364C903.373 530.864 904.953 532.124 907.033 532.124ZM915.439 520.824H917.199L920.239 517.984H917.659L915.439 520.824ZM916.699 532.124C918.659 532.124 920.179 531.044 920.839 529.204L918.659 528.364C918.399 529.384 917.639 530.024 916.679 530.024C914.999 530.024 914.379 528.584 914.379 527.024C914.379 525.464 915.019 523.964 916.679 523.964C917.659 523.964 918.399 524.624 918.659 525.664L920.939 524.764C920.179 522.804 918.639 521.864 916.679 521.864C913.459 521.864 911.919 524.424 911.919 527.024C911.919 529.624 913.479 532.124 916.699 532.124Z" fill="black"/>
<g filter="url(#filter4_d_431_5)">
<rect x="503.942" y="493.552" width="216.058" height="201.246" rx="20" fill="white"/>
</g>
<g clip-path="url(#clip2_431_5)">
<path d="M643.994 537.948L644.152 538.108C645.89 540.663 646.679 543.696 646.206 546.571C645.89 549.445 644.31 552.159 641.782 554.075L595.174 589.523L583.008 589.682C582.218 589.682 581.428 589.523 580.638 589.044C579.848 588.724 579.216 588.245 578.742 587.447C578.268 586.808 577.794 586.01 577.636 585.212C577.636 584.413 577.636 583.615 577.952 582.657L581.428 571.001L628.036 535.553C630.564 533.637 633.566 532.998 636.41 533.477C639.412 533.797 642.098 535.393 643.994 537.948V537.948ZM628.826 542.1L635.936 551.52L638.464 549.604C639.728 548.646 640.518 547.209 640.676 545.772C640.834 544.335 640.518 542.738 639.57 541.461L639.412 541.301C638.464 540.024 637.2 539.226 635.62 539.066C634.198 538.747 632.776 539.226 631.512 540.024L628.826 542.1V542.1ZM631.512 554.874L624.402 545.453L589.802 571.799L596.753 581.22L631.512 554.874ZM591.856 583.934L585.852 575.791L583.324 584.094L591.856 583.934V583.934Z" fill="#530CEB"/>
</g>
<path d="M540.639 645.448C544.159 645.448 545.979 643.628 545.979 640.008V631.208H543.479V639.828C543.479 642.168 542.699 643.028 540.639 643.028C538.579 643.028 537.819 642.188 537.819 639.828V631.208H535.319V640.108C535.319 643.668 537.139 645.448 540.639 645.448ZM554.054 635.088C552.854 635.088 551.774 635.488 551.074 636.428V635.288H548.674V645.148H551.074V641.208C551.074 639.448 551.074 637.188 553.314 637.188C555.134 637.188 555.134 638.708 555.134 639.388V645.148H557.534V638.788C557.534 636.448 556.274 635.088 554.054 635.088ZM559.98 633.428H562.5V631.208H559.98V633.428ZM560.04 645.148H562.44V635.288H560.04V645.148ZM565.175 645.148H567.575V642.268L569.095 640.588L571.975 645.148H574.835L570.735 639.108L574.415 635.288H571.195L567.575 639.288V631.208H565.175V645.148ZM579.618 635.088C577.818 635.088 576.358 635.788 575.178 637.208L576.918 638.668C577.638 637.708 578.578 637.188 579.578 637.188C580.718 637.188 581.438 637.848 581.438 638.928V639.208H578.978C577.858 639.208 577.018 639.348 576.358 639.648C575.398 640.088 574.878 640.968 574.878 642.128C574.878 644.008 576.358 645.348 578.438 645.348C579.738 645.348 580.858 644.788 581.438 643.868L581.638 645.148H583.838V638.928C583.838 636.548 582.218 635.088 579.618 635.088ZM578.818 643.308C577.858 643.308 577.278 642.868 577.278 642.168C577.278 641.808 577.418 641.528 577.678 641.348C577.998 641.108 578.478 641.008 579.298 641.008H581.438C581.438 642.288 580.258 643.308 578.818 643.308ZM591.485 637.188V635.288H589.025V631.608L586.625 633.388V635.288H585.025V637.188H586.625V642.388C586.625 644.488 588.025 645.348 589.685 645.348C590.285 645.348 590.885 645.248 591.485 645.048V643.128C591.045 643.268 590.625 643.348 590.285 643.348C589.505 643.348 589.025 642.988 589.025 642.208V637.188H591.485ZM597.471 645.348C600.511 645.348 602.411 642.988 602.411 640.208C602.411 637.408 600.511 635.088 597.471 635.088C594.411 635.088 592.531 637.408 592.531 640.208C592.531 642.988 594.411 645.348 597.471 645.348ZM597.471 643.248C595.651 643.248 594.931 641.808 594.931 640.208C594.931 638.588 595.651 637.188 597.471 637.188C599.291 637.188 600.011 638.588 600.011 640.208C600.011 641.808 599.291 643.248 597.471 643.248ZM605.715 645.148H607.875L609.815 638.688L611.755 645.148H613.915L616.955 635.288H614.395L612.695 641.448L610.835 635.288H608.775L606.915 641.468L605.235 635.288H602.675L605.715 645.148ZM618.988 649.228H621.588L627.188 635.288H624.548L622.028 642.128L619.528 635.288H616.888L620.748 644.888L618.988 649.228ZM639.429 631.208V636.288C638.809 635.548 637.709 635.088 636.589 635.088C634.169 635.088 632.429 636.988 632.429 640.208C632.429 643.168 633.909 645.348 636.589 645.348C637.649 645.348 638.749 645.008 639.429 644.168V645.148H641.829V631.208H639.429ZM637.169 643.128C635.569 643.128 634.829 642.048 634.829 640.228C634.829 638.388 635.589 637.268 637.189 637.268C638.909 637.268 639.649 638.588 639.649 640.228C639.649 641.868 638.909 643.128 637.169 643.128ZM652.974 640.088C652.974 637.348 651.494 635.088 648.434 635.088C645.154 635.088 643.754 637.688 643.754 640.268C643.754 642.908 645.194 645.348 648.594 645.348C650.254 645.348 651.554 644.768 652.634 643.568L650.974 642.108C650.294 642.888 649.494 643.168 648.614 643.168C647.054 643.168 646.254 642.308 646.154 641.008H652.914C652.954 640.688 652.974 640.388 652.974 640.088ZM646.134 639.108C646.274 638.128 646.954 637.088 648.414 637.088C649.674 637.088 650.634 637.848 650.674 639.108H646.134ZM657.965 645.348C659.825 645.348 661.805 644.348 661.805 642.048C661.805 638.448 656.645 639.328 656.645 637.828C656.645 637.368 657.125 636.988 657.905 636.988C658.985 636.988 659.525 637.628 659.865 638.248L661.725 637.228C660.985 635.888 659.685 635.088 657.985 635.088C656.085 635.088 654.365 636.068 654.365 637.968C654.365 641.628 659.445 640.528 659.445 642.188C659.445 642.708 658.965 643.348 657.845 643.348C656.525 643.348 656.005 642.448 655.745 641.728L653.825 642.588C654.305 644.088 655.885 645.348 657.965 645.348ZM663.69 633.428H666.21V631.208H663.69V633.428ZM663.75 645.148H666.15V635.288H663.75V645.148ZM672.645 643.648C671.405 643.488 670.405 643.288 670.405 642.568C670.405 642.328 670.505 642.168 670.685 642.048C671.265 642.288 671.905 642.428 672.585 642.428C674.745 642.428 676.585 641.028 676.585 638.828C676.585 638.188 676.425 637.608 676.165 637.108L677.585 635.948L676.325 634.428L674.825 635.708C674.165 635.308 673.365 635.088 672.505 635.088C670.305 635.088 668.465 636.568 668.465 638.708C668.465 639.568 668.765 640.348 669.265 640.968C668.685 641.468 668.345 642.088 668.345 642.948C668.345 643.968 668.825 644.588 669.525 644.968L668.105 645.868C668.085 645.968 668.065 646.068 668.065 646.308C668.065 648.348 669.745 649.428 672.685 649.428C675.345 649.428 677.225 648.548 677.225 646.488C677.225 644.128 674.645 643.908 672.645 643.648ZM672.545 637.088C673.565 637.088 674.185 637.748 674.185 638.768C674.185 639.728 673.645 640.468 672.545 640.468C671.425 640.468 670.865 639.708 670.865 638.768C670.865 637.768 671.525 637.088 672.545 637.088ZM672.785 647.628C671.665 647.628 670.445 647.368 670.445 646.528C670.445 646.488 670.445 646.428 670.465 646.368L671.325 645.548L672.145 645.668C673.565 645.868 674.825 645.948 674.825 646.708C674.825 647.388 673.805 647.628 672.785 647.628ZM684.438 635.088C683.238 635.088 682.158 635.488 681.458 636.428V635.288H679.058V645.148H681.458V641.208C681.458 639.448 681.458 637.188 683.698 637.188C685.518 637.188 685.518 638.708 685.518 639.388V645.148H687.918V638.788C687.918 636.448 686.658 635.088 684.438 635.088Z" fill="black"/>
<g filter="url(#filter5_d_431_5)">
<rect x="749.942" y="613.552" width="216.058" height="201.246" rx="20" fill="white"/>
</g>
<path d="M871 661.5H845C834.275 661.5 825.5 670.275 825.5 681C825.5 691.725 834.275 700.5 845 700.5H871C881.725 700.5 890.5 691.725 890.5 681C890.5 670.275 881.725 661.5 871 661.5ZM871 694H845C837.85 694 832 688.15 832 681C832 673.85 837.85 668 845 668H871C878.15 668 884 673.85 884 681C884 688.15 878.15 694 871 694Z" fill="#530CEB"/>
<path d="M871 671.25C865.475 671.25 861.25 675.475 861.25 681C861.25 686.525 865.475 690.75 871 690.75C876.525 690.75 880.75 686.525 880.75 681C880.75 675.475 876.525 671.25 871 671.25ZM871 684.25C869.05 684.25 867.75 682.95 867.75 681C867.75 679.05 869.05 677.75 871 677.75C872.95 677.75 874.25 679.05 874.25 681C874.25 682.95 872.95 684.25 871 684.25Z" fill="#530CEB"/>
<path d="M790.505 765.148H793.005V759.128H799.505V756.828H793.005V753.508H800.385V751.208H790.505V765.148ZM807.613 755.288V759.028C807.613 760.788 807.613 763.248 805.373 763.248C803.553 763.248 803.553 761.528 803.553 760.848V755.288H801.153V761.448C801.153 763.548 802.193 765.348 804.673 765.348C805.833 765.348 806.913 764.948 807.613 764.008V765.148H810.013V755.288H807.613ZM818.119 755.088C816.919 755.088 815.839 755.488 815.139 756.428V755.288H812.739V765.148H815.139V761.208C815.139 759.448 815.139 757.188 817.379 757.188C819.199 757.188 819.199 758.708 819.199 759.388V765.148H821.599V758.788C821.599 756.448 820.339 755.088 818.119 755.088ZM824.124 765.148H826.524V762.268L828.044 760.588L830.924 765.148H833.784L829.684 759.108L833.364 755.288H830.144L826.524 759.288V751.208H824.124V765.148ZM838.452 765.348C840.412 765.348 841.932 764.268 842.592 762.428L840.412 761.588C840.152 762.608 839.392 763.248 838.432 763.248C836.752 763.248 836.132 761.808 836.132 760.248C836.132 758.688 836.772 757.188 838.432 757.188C839.412 757.188 840.152 757.848 840.412 758.888L842.692 757.988C841.932 756.028 840.392 755.088 838.432 755.088C835.212 755.088 833.672 757.648 833.672 760.248C833.672 762.848 835.232 765.348 838.452 765.348ZM844.295 753.428H846.815V751.208H844.295V753.428ZM844.435 769.428C845.775 769.428 846.755 768.628 846.755 766.868V755.288H844.355V766.708C844.355 767.148 844.095 767.328 843.655 767.328C843.435 767.328 843.175 767.288 842.895 767.208V769.128C843.435 769.328 843.975 769.428 844.435 769.428ZM853.549 765.348C856.589 765.348 858.489 762.988 858.489 760.208C858.489 757.408 856.589 755.088 853.549 755.088C850.489 755.088 848.609 757.408 848.609 760.208C848.609 762.988 850.489 765.348 853.549 765.348ZM853.549 763.248C851.729 763.248 851.009 761.808 851.009 760.208C851.009 758.588 851.729 757.188 853.549 757.188C855.369 757.188 856.089 758.588 856.089 760.208C856.089 761.808 855.369 763.248 853.549 763.248ZM865.707 755.088C864.507 755.088 863.427 755.488 862.727 756.428V755.288H860.327V765.148H862.727V761.208C862.727 759.448 862.727 757.188 864.967 757.188C866.787 757.188 866.787 758.708 866.787 759.388V765.148H869.187V758.788C869.187 756.448 867.927 755.088 865.707 755.088ZM875.513 755.088C873.713 755.088 872.253 755.788 871.073 757.208L872.813 758.668C873.533 757.708 874.473 757.188 875.473 757.188C876.613 757.188 877.333 757.848 877.333 758.928V759.208H874.873C873.753 759.208 872.913 759.348 872.253 759.648C871.293 760.088 870.773 760.968 870.773 762.128C870.773 764.008 872.253 765.348 874.333 765.348C875.633 765.348 876.753 764.788 877.333 763.868L877.533 765.148H879.733V758.928C879.733 756.548 878.113 755.088 875.513 755.088ZM874.713 763.308C873.753 763.308 873.173 762.868 873.173 762.168C873.173 761.808 873.313 761.528 873.573 761.348C873.893 761.108 874.373 761.008 875.193 761.008H877.333C877.333 762.288 876.153 763.308 874.713 763.308ZM884.399 765.348C884.859 765.348 885.399 765.248 885.939 765.048V763.128C885.659 763.208 885.399 763.248 885.179 763.248C884.739 763.248 884.479 763.068 884.479 762.628V751.208H882.079V762.788C882.079 764.548 883.059 765.348 884.399 765.348ZM893.045 755.088C891.845 755.088 890.765 755.488 890.065 756.428V755.288H887.665V765.148H890.065V761.208C890.065 759.448 890.065 757.188 892.305 757.188C894.125 757.188 894.125 758.708 894.125 759.388V765.148H896.525V758.788C896.525 756.448 895.265 755.088 893.045 755.088ZM903.091 765.348C906.131 765.348 908.031 762.988 908.031 760.208C908.031 757.408 906.131 755.088 903.091 755.088C900.031 755.088 898.151 757.408 898.151 760.208C898.151 762.988 900.031 765.348 903.091 765.348ZM903.091 763.248C901.271 763.248 900.551 761.808 900.551 760.208C900.551 758.588 901.271 757.188 903.091 757.188C904.911 757.188 905.631 758.588 905.631 760.208C905.631 761.808 904.911 763.248 903.091 763.248ZM912.149 754.048H913.909L916.949 751.208H914.369L912.149 754.048ZM912.969 765.348C914.829 765.348 916.809 764.348 916.809 762.048C916.809 758.448 911.649 759.328 911.649 757.828C911.649 757.368 912.129 756.988 912.909 756.988C913.989 756.988 914.529 757.628 914.869 758.248L916.729 757.228C915.989 755.888 914.689 755.088 912.989 755.088C911.089 755.088 909.369 756.068 909.369 757.968C909.369 761.628 914.449 760.528 914.449 762.188C914.449 762.708 913.969 763.348 912.849 763.348C911.529 763.348 911.009 762.448 910.749 761.728L908.829 762.588C909.309 764.088 910.889 765.348 912.969 765.348ZM921.374 754.048H923.134L926.174 751.208H923.594L921.374 754.048ZM922.634 765.348C924.594 765.348 926.114 764.268 926.774 762.428L924.594 761.588C924.334 762.608 923.574 763.248 922.614 763.248C920.934 763.248 920.314 761.808 920.314 760.248C920.314 758.688 920.954 757.188 922.614 757.188C923.594 757.188 924.334 757.848 924.594 758.888L926.874 757.988C926.114 756.028 924.574 755.088 922.614 755.088C919.394 755.088 917.854 757.648 917.854 760.248C917.854 762.848 919.414 765.348 922.634 765.348Z" fill="black"/>
</g>
</g>
<defs>
<filter id="filter0_ddd_431_5" x="-237" y="99" width="1380" height="884" filterUnits="userSpaceOnUse" color-interpolation-filters="sRGB">
<feFlood flood-opacity="0" result="BackgroundImageFix"/>
<feColorMatrix in="SourceAlpha" type="matrix" values="0 0 0 0 0 0 0 0 0 0 0 0 0 0 0 0 0 0 127 0" result="hardAlpha"/>
<feOffset dy="10"/>
<feGaussianBlur stdDeviation="25"/>
<feColorMatrix type="matrix" values="0 0 0 0 0 0 0 0 0 0 0 0 0 0 0 0 0 0 0.2 0"/>
<feBlend mode="normal" in2="BackgroundImageFix" result="effect1_dropShadow_431_5"/>
<feColorMatrix in="SourceAlpha" type="matrix" values="0 0 0 0 0 0 0 0 0 0 0 0 0 0 0 0 0 0 127 0" result="hardAlpha"/>
<feOffset dy="20"/>
<feGaussianBlur stdDeviation="15"/>
<feColorMatrix type="matrix" values="0 0 0 0 0 0 0 0 0 0 0 0 0 0 0 0 0 0 0.3 0"/>
<feBlend mode="normal" in2="effect1_dropShadow_431_5" result="effect2_dropShadow_431_5"/>
<feColorMatrix in="SourceAlpha" type="matrix" values="0 0 0 0 0 0 0 0 0 0 0 0 0 0 0 0 0 0 127 0" result="hardAlpha"/>
<feOffset/>
<feGaussianBlur stdDeviation="0.5"/>
<feColorMatrix type="matrix" values="0 0 0 0 0 0 0 0 0 0 0 0 0 0 0 0 0 0 0.7 0"/>
<feBlend mode="normal" in2="effect2_dropShadow_431_5" result="effect3_dropShadow_431_5"/>
<feBlend mode="normal" in="SourceGraphic" in2="effect3_dropShadow_431_5" result="shape"/>
</filter>
<filter id="filter1_di_431_5" x="-187" y="139" width="1280" height="53.5" filterUnits="userSpaceOnUse" color-interpolation-filters="sRGB">
<feFlood flood-opacity="0" result="BackgroundImageFix"/>
<feColorMatrix in="SourceAlpha" type="matrix" values="0 0 0 0 0 0 0 0 0 0 0 0 0 0 0 0 0 0 127 0" result="hardAlpha"/>
<feOffset dy="0.5"/>
<feColorMatrix type="matrix" values="0 0 0 0 0 0 0 0 0 0 0 0 0 0 0 0 0 0 0.15 0"/>
<feBlend mode="normal" in2="BackgroundImageFix" result="effect1_dropShadow_431_5"/>
<feBlend mode="normal" in="SourceGraphic" in2="effect1_dropShadow_431_5" result="shape"/>
<feColorMatrix in="SourceAlpha" type="matrix" values="0 0 0 0 0 0 0 0 0 0 0 0 0 0 0 0 0 0 127 0" result="hardAlpha"/>
<feOffset dy="-0.5"/>
<feComposite in2="hardAlpha" operator="arithmetic" k2="-1" k3="1"/>
<feColorMatrix type="matrix" values="0 0 0 0 0 0 0 0 0 0 0 0 0 0 0 0 0 0 0.05 0"/>
<feBlend mode="normal" in2="shape" result="effect2_innerShadow_431_5"/>
</filter>
<filter id="filter2_d_431_5" x="443.942" y="231.332" width="336.058" height="321.246" filterUnits="userSpaceOnUse" color-interpolation-filters="sRGB">
<feFlood flood-opacity="0" result="BackgroundImageFix"/>
<feColorMatrix in="SourceAlpha" type="matrix" values="0 0 0 0 0 0 0 0 0 0 0 0 0 0 0 0 0 0 127 0" result="hardAlpha"/>
<feOffset dy="30"/>
<feGaussianBlur stdDeviation="30"/>
<feComposite in2="hardAlpha" operator="out"/>
<feColorMatrix type="matrix" values="0 0 0 0 0 0 0 0 0 0 0 0 0 0 0 0 0 0 0.15 0"/>
<feBlend mode="normal" in2="BackgroundImageFix" result="effect1_dropShadow_431_5"/>
<feBlend mode="normal" in="SourceGraphic" in2="effect1_dropShadow_431_5" result="shape"/>
</filter>
<filter id="filter3_d_431_5" x="689.942" y="350.328" width="336.058" height="321.246" filterUnits="userSpaceOnUse" color-interpolation-filters="sRGB">
<feFlood flood-opacity="0" result="BackgroundImageFix"/>
<feColorMatrix in="SourceAlpha" type="matrix" values="0 0 0 0 0 0 0 0 0 0 0 0 0 0 0 0 0 0 127 0" result="hardAlpha"/>
<feOffset dy="30"/>
<feGaussianBlur stdDeviation="30"/>
<feComposite in2="hardAlpha" operator="out"/>
<feColorMatrix type="matrix" values="0 0 0 0 0 0 0 0 0 0 0 0 0 0 0 0 0 0 0.15 0"/>
<feBlend mode="normal" in2="BackgroundImageFix" result="effect1_dropShadow_431_5"/>
<feBlend mode="normal" in="SourceGraphic" in2="effect1_dropShadow_431_5" result="shape"/>
</filter>
<filter id="filter4_d_431_5" x="443.942" y="463.552" width="336.058" height="321.246" filterUnits="userSpaceOnUse" color-interpolation-filters="sRGB">
<feFlood flood-opacity="0" result="BackgroundImageFix"/>
<feColorMatrix in="SourceAlpha" type="matrix" values="0 0 0 0 0 0 0 0 0 0 0 0 0 0 0 0 0 0 127 0" result="hardAlpha"/>
<feOffset dy="30"/>
<feGaussianBlur stdDeviation="30"/>
<feComposite in2="hardAlpha" operator="out"/>
<feColorMatrix type="matrix" values="0 0 0 0 0 0 0 0 0 0 0 0 0 0 0 0 0 0 0.15 0"/>
<feBlend mode="normal" in2="BackgroundImageFix" result="effect1_dropShadow_431_5"/>
<feBlend mode="normal" in="SourceGraphic" in2="effect1_dropShadow_431_5" result="shape"/>
</filter>
<filter id="filter5_d_431_5" x="689.942" y="583.552" width="336.058" height="321.246" filterUnits="userSpaceOnUse" color-interpolation-filters="sRGB">
<feFlood flood-opacity="0" result="BackgroundImageFix"/>
<feColorMatrix in="SourceAlpha" type="matrix" values="0 0 0 0 0 0 0 0 0 0 0 0 0 0 0 0 0 0 127 0" result="hardAlpha"/>
<feOffset dy="30"/>
<feGaussianBlur stdDeviation="30"/>
<feComposite in2="hardAlpha" operator="out"/>
<feColorMatrix type="matrix" values="0 0 0 0 0 0 0 0 0 0 0 0 0 0 0 0 0 0 0.15 0"/>
<feBlend mode="normal" in2="BackgroundImageFix" result="effect1_dropShadow_431_5"/>
<feBlend mode="normal" in="SourceGraphic" in2="effect1_dropShadow_431_5" result="shape"/>
</filter>
<clipPath id="clip0_431_5">
<rect width="1201" height="1062" fill="white"/>
</clipPath>
<clipPath id="clip1_431_5">
<rect x="410.586" y="156" width="84.8281" height="18" fill="white"/>
</clipPath>
<clipPath id="clip2_431_5">
<rect width="68.7273" height="56.5955" fill="white" transform="translate(577.636 533.202)"/>
</clipPath>
</defs>
</svg>
