<svg xmlns="http://www.w3.org/2000/svg" width="27.64" height="27.5" viewBox="0 0 27.64 27.5"><g id="Warstwa_2" data-name="Warstwa 2"><g id="Warstwa_1-2" data-name="Warstwa 1"><polygon points="5.83 13.68 5.83 21.67 13.82 21.67 12.16 20 7.5 20 7.5 15.35 5.83 13.68" style="fill:#530ceb"/><path d="M27.39,26.08,25,23.65v2.19H1.67V22.38H3.33V21.05H1.67V15.5H3.33V14.17H1.67V8.84H3.33V7.5H1.67V2.85L15,16.05V13.7L1.43.25A.84.84,0,0,0,0,.84V26.67a.83.83,0,0,0,.83.83h26a.82.82,0,0,0,.84-.82A.84.84,0,0,0,27.39,26.08Z" style="fill:#530ceb"/><path d="M18.33,24.17h3.34a1.66,1.66,0,0,0,1.66-1.67V6.42L21.42,2.9A1.67,1.67,0,0,0,20,2.06h0a1.68,1.68,0,0,0-1.47.9L16.67,6.44V22.5A1.66,1.66,0,0,0,18.33,24.17Zm0-17.33L20,3.7l1.72,3.15V19.17H18.33Zm0,13.69h3.34v2H18.33Z" style="fill:#530ceb"/></g></g></svg>