<svg width="201" height="252" viewBox="0 0 201 252" fill="none" xmlns="http://www.w3.org/2000/svg">
<g clip-path="url(#clip0_516_40)">
<path d="M12.9839 200.449L12.9362 183.269L4.46143 243.483C10.7323 243.658 17.0032 243.833 24.4394 243.756C20.5753 225.809 13.0069 208.75 12.9839 200.449Z" fill="#530CEB"/>
<path d="M86.9119 153.961L64.9092 236.534C77.9114 236.903 90.9137 237.272 104.951 237.607C96.7792 209.816 88.6077 182.025 86.9119 153.961Z" fill="#530CEB"/>
<path d="M139.073 118.739C139.494 160.005 139.915 201.271 139.119 242.539C149.552 242.348 159.985 242.157 173.772 241.793C164.457 200.892 155.142 159.991 139.073 118.739Z" fill="#530CEB"/>
<path d="M34.1445 158.584C31.5303 157.869 28.8759 157.312 26.1954 156.916C26.8295 157.131 27.4648 157.342 28.0967 157.563C35.0725 160.464 43.8625 162.839 47.7241 170.259C49.5095 174.833 49.1158 179.918 48.7485 184.72C47.9981 191.339 46.8515 197.907 45.3149 204.388C42.0902 219.288 35.8838 236.345 29.5347 240.678C27.7624 242.621 21.6236 242.087 18.8054 241.59C10.5406 239.879 8.17589 238.57 8.20062 233.214C10.4614 206.181 10.146 179.039 11.0221 151.945C7.34808 173.056 5.10211 194.366 2.40023 215.614C1.94799 219.035 2.16236 217.421 1.75256 220.467C1.18115 227.635 -2.1218 235.748 2.16686 242.308C5.8895 247.862 12.7667 249.881 19.0544 250.798C28.4414 252.596 35.3367 249.956 40.7389 241.971C50.0339 226.37 51.8532 208.436 53.5575 192.073C54.5939 174.115 54.0002 163.144 34.1445 158.584Z" fill="#1E1E20"/>
<path d="M113.386 126.978C112.985 125.224 112.08 123.627 110.784 122.382C109.487 121.138 107.856 120.301 106.091 119.975C99.1941 118.041 91.943 118.849 84.8952 119.272C91.1111 119.959 96.5825 120.05 102.542 121.863C108.981 123.65 109.388 125.782 109.864 130.661C110.373 138.096 110.241 145.564 110.063 153.01C109.605 175.729 103.962 222.648 93.4185 234.163C91.161 235.553 92.7127 234.918 90.0368 235.521C89.9593 235.524 89.8966 235.527 89.8042 235.528C82.3767 235.36 77.4495 234.208 72.4864 231.491C72.3379 231.374 72.2163 231.28 72.1129 231.203C71.7296 230.898 71.3674 230.568 71.0286 230.214C71.0138 230.195 71.0072 230.187 70.9936 230.17C70.881 229.999 70.7739 229.827 70.6778 229.646C70.5548 229.283 70.4512 228.914 70.3674 228.54C70.2854 227.76 70.2444 226.976 70.2445 226.192C71.6256 190.663 70.1427 155.108 71.2908 119.575C66.2898 148.246 64.0442 177.266 61.8395 206.259C61.3881 212.129 60.8617 217.993 60.4857 223.868C60.1143 228.535 60.4247 233.686 63.8068 237.256C70.0409 244.006 84.2694 246.597 93.0833 245.361C101.088 243.794 105.405 236.257 107.84 229.096C110.48 222.255 112.436 215.168 113.679 207.939C117.994 181.268 118.738 153.534 113.386 126.978Z" fill="#1E1E20"/>
<path d="M199.946 129.691C198.919 118.582 199.033 106.855 194.546 96.4724C188.306 83.0594 171.373 81.8212 158.418 80.5498C167.594 83.1311 175.755 85.0679 183.351 90.3362C191.565 96.6417 190.878 104.566 191.456 113.746C191.924 128.063 191.384 142.384 190.895 156.693C189.881 186.321 189.919 229.979 182.058 237.674C179.495 238.431 168.287 239.015 161.122 239.549C153.816 239.814 147.851 240.689 143.486 239.329C143.117 233.658 143.708 205.922 143.909 192.448C144.446 152.688 142.603 112.926 144.474 73.1785C137.57 110.29 135.084 147.968 133.719 185.641C133.238 197.806 133.089 209.982 132.916 222.155C133.021 228.891 132.288 235.698 133.162 242.393C135.691 251.683 147.467 250.808 155.124 250.607C162.582 250.2 170.034 249.7 177.48 249.106C181.043 248.721 184.92 248.725 187.985 246.631C192.744 243.017 194.825 236.788 196.566 231.268C199.672 216.878 200.031 202.057 200.617 187.393C201.271 168.167 201.112 148.896 199.946 129.691Z" fill="#1E1E20"/>
<path d="M136.52 10.5878C130.694 1.58334 119.454 0.0915924 109.577 0.366754C98.2538 0.419453 86.9783 1.98022 75.9068 4.29032C70.9297 5.63161 65.4294 6.59308 61.2789 9.80482C58.6203 12.438 59.3804 17.0143 62.5367 18.8954C64.3386 19.8802 66.4147 19.7874 68.4092 19.8039C80.7545 19.7831 93.0994 19.5444 105.444 19.4407C108.935 19.406 111.508 19.4425 113.596 19.6179C110.679 22.708 107.539 25.5877 104.451 28.504C70.7747 58.4014 38.3366 89.6916 8.80078 123.749C35.0918 101.819 61.3674 79.8697 87.6276 57.9023C98.0852 49.0913 108.397 40.0982 118.36 30.7265C121.568 27.5095 125.432 24.5114 127.073 20.1377C127.749 17.7447 127.584 15.794 126.872 14.1997C126.936 14.2454 126.995 14.2836 127.06 14.3306C132.651 18.032 134.335 34.1045 131.92 50.9692C130.765 58.9985 126.655 76.0926 123.317 86.8806C122.461 89.7042 121.555 92.5134 120.576 95.2957C126.332 84.5328 131.227 73.3286 135.214 61.7889C139.95 47.9444 145.248 23.4251 136.52 10.5878Z" fill="#1E1E20"/>
<path d="M80.1948 77.7346L127.231 33.8247C130.825 58.437 106.398 82.8911 80.1948 77.7346Z" fill="#530CEB"/>
</g>
<defs>
<clipPath id="clip0_516_40">
<rect width="201" height="251" fill="white" transform="translate(0 0.336914)"/>
</clipPath>
</defs>
</svg>
