<svg xmlns="http://www.w3.org/2000/svg" width="24.84" height="30" viewBox="0 0 24.84 30"><g id="Warstwa_2" data-name="Warstwa 2"><g id="Warstwa_1-2" data-name="Warstwa 1"><path d="M1.25,9.31l10-7.55,10,7.55a.74.74,0,0,0,.47.16.79.79,0,0,0,.47-1.41L11.74.16a.8.8,0,0,0-1,0L.31,8.06a.79.79,0,0,0-.15,1.1.78.78,0,0,0,1.09.15Z" style="fill:#530ceb"/><path d="M24.61,27.12,22.53,25V12a.77.77,0,0,0-.31-.62L11.74,3.49a.8.8,0,0,0-1,0L.31,11.4A.8.8,0,0,0,0,12V25.33a.78.78,0,0,0,.78.78H18.31L22,29.77a.82.82,0,0,0,.56.23.78.78,0,0,0,.55-.23l1.54-1.54a.78.78,0,0,0,0-1.11Zm-23-14.71,9.7-7.31L21,12.41V23.47l-3.32-3.31a6.43,6.43,0,0,0-1.13-7.54A6.41,6.41,0,1,0,15,22.81l1.74,1.74H1.57V12.41ZM12,22a4.8,4.8,0,0,1-3.42-1.42A4.84,4.84,0,0,1,12,12.31,4.84,4.84,0,0,1,12,22Zm4.31-.1.22-.21a2.13,2.13,0,0,0,.21-.22L23,27.67l-.43.44L16.3,21.89Z" style="fill:#530ceb"/><path d="M15,19a.8.8,0,0,0-1.11,0,2.68,2.68,0,0,1-3.78,0A.78.78,0,0,0,9,20.15a4.24,4.24,0,0,0,6,0A.78.78,0,0,0,15,19Z" style="fill:#530ceb"/></g></g></svg>