<svg width="30" height="31" viewBox="0 0 30 31" fill="none" xmlns="http://www.w3.org/2000/svg">
<g clip-path="url(#clip0_474_120)">
<path d="M15 30.083C23.0156 30.083 29.5312 23.5674 29.5312 15.5518C29.5312 7.53613 23.0156 1.02051 15 1.02051C6.98437 1.02051 0.46875 7.53613 0.46875 15.5518C0.46875 23.5674 6.98437 30.083 15 30.083ZM3.75 21.3408L9.65625 21.2939C10.3125 23.6611 11.4141 25.958 12.9141 28.0205C8.90625 27.3643 5.55469 24.8096 3.75 21.3408ZM11.1562 11.5674H18.5156C19.0547 14.1455 19.0547 16.7939 18.5625 19.3721L11.1562 19.4189C10.6172 16.8174 10.6172 14.1455 11.1562 11.5674ZM14.8359 27.4814C13.3594 25.583 12.2812 23.4971 11.625 21.2939L18.0703 21.2471C17.3906 23.4502 16.3125 25.5596 14.8359 27.4814ZM16.7109 28.0908C18.2578 25.9814 19.3594 23.6611 20.0156 21.2236L26.3203 21.1768C24.4922 24.8564 20.9297 27.5049 16.7109 28.0908ZM27.6562 15.5518C27.6562 16.8643 27.4453 18.1299 27.0937 19.3018L20.4609 19.3486C20.9297 16.7705 20.9062 14.1455 20.4141 11.5674H27C27.4219 12.8096 27.6562 14.1689 27.6562 15.5518ZM26.2031 9.69238H19.9687C19.2891 7.34863 18.2109 5.0752 16.7109 3.0127C20.8594 3.5752 24.3516 6.12988 26.2031 9.69238ZM18.0234 9.69238H11.6484C12.3281 7.53613 13.3828 5.49707 14.8359 3.62207C16.2891 5.49707 17.3438 7.53613 18.0234 9.69238ZM12.9141 3.08301C11.4375 5.12207 10.3594 7.34863 9.70313 9.69238H3.79688C5.60156 6.24707 8.92969 3.73926 12.9141 3.08301ZM9.25781 11.5674C8.76563 14.1689 8.76563 16.8174 9.23438 19.4189L2.97656 19.4658C2.55469 18.2236 2.34375 16.9111 2.34375 15.5518C2.34375 14.1689 2.57813 12.8096 3 11.5674H9.25781Z" fill="#530CEB"/>
</g>
<defs>
<clipPath id="clip0_474_120">
<rect width="30" height="30" fill="white" transform="translate(0 0.551758)"/>
</clipPath>
</defs>
</svg>
